<?xml version="1.0" encoding="UTF-8" standalone="no"?>
<svg xmlns="http://www.w3.org/2000/svg" xmlns:xlink="http://www.w3.org/1999/xlink" width="400" height="360" version="1.0">
  <defs>
    <radialGradient xlink:href="#a" id="j" cx="90.20755" cy="264.08795" r="32.989033" fx="90.20755" fy="264.08795" gradientTransform="matrix(.94132 .33751 -.98599 2.7499 261.7786 -483.4282)" gradientUnits="userSpaceOnUse" spreadMethod="reflect"/>
    <radialGradient xlink:href="#a" id="k" cx="148.51024" cy="189.07526" r="28.557117" fx="148.51024" fy="189.07526" gradientTransform="matrix(1.4605 .29257 -.66066 3.29799 54.61396 -468.7349)" gradientUnits="userSpaceOnUse"/>
    <radialGradient xlink:href="#a" id="l" cx="190.25296" cy="133.78008" r="42.904423" fx="190.25296" fy="133.78008" gradientTransform="matrix(.80171 .81419 -2.86374 2.81989 451.7457 -410.501)" gradientUnits="userSpaceOnUse"/>
    <radialGradient xlink:href="#b" id="m" cx="318.53406" cy="70.835747" r="66.834991" fx="318.53406" fy="70.835747" gradientTransform="matrix(-.2423 -.40927 1.62915 -.96449 238.4446 289.0525)" gradientUnits="userSpaceOnUse"/>
    <radialGradient xlink:href="#b" id="n" cx="224.14607" cy="109.50309" r="70.887459" fx="224.14607" fy="109.50309" gradientTransform="matrix(1.19317 -1.2178 .3208 .3143 -94.0463 401.4048)" gradientUnits="userSpaceOnUse"/>
    <radialGradient xlink:href="#b" id="o" cx="282.98776" cy="40.732708" r="110.10155" fx="282.98776" fy="40.732708" gradientTransform="matrix(.68197 -.40657 .09517 .15965 98.53223 182.9053)" gradientUnits="userSpaceOnUse"/>
    <radialGradient xlink:href="#a" id="p" cx="119.7226" cy="269.64893" r="71.064232" fx="119.7226" fy="269.64893" gradientTransform="matrix(1.44987 -.95003 .29185 .4454 -146.5661 258.3893)" gradientUnits="userSpaceOnUse"/>
    <radialGradient xlink:href="#a" id="q" cx="196.33719" cy="186.43681" r="57.805977" fx="196.33719" fy="186.43681" gradientTransform="matrix(1.83694 -1.7725 .5728 .59363 -274.3391 424.107)" gradientUnits="userSpaceOnUse"/>
    <linearGradient id="e">
      <stop offset="0" stop-color="#c8c8c8"/>
      <stop offset=".29890215" stop-color="#fff"/>
      <stop offset=".76084185" stop-color="#969696"/>
      <stop offset="1" stop-color="#646464"/>
    </linearGradient>
    <linearGradient id="d">
      <stop offset="0" stop-color="#c8c8c8"/>
      <stop offset=".10714286" stop-color="#fff"/>
      <stop offset=".76084185" stop-color="#969696"/>
      <stop offset="1" stop-color="#646464"/>
    </linearGradient>
    <linearGradient id="b">
      <stop offset="0" stop-color="#fff"/>
      <stop offset=".4107143" stop-color="#fff"/>
      <stop offset="1" stop-color="#ccc"/>
    </linearGradient>
    <linearGradient id="a">
      <stop offset="0" stop-color="#fff"/>
      <stop offset=".16932398" stop-color="#fff"/>
      <stop offset=".36134845" stop-color="#ddd"/>
      <stop offset=".6173811" stop-color="#ccc"/>
      <stop offset="1" stop-color="#ccc"/>
    </linearGradient>
    <linearGradient id="c">
      <stop offset="0" stop-color="#a0a3e1"/>
      <stop offset="1" stop-color="#dedcfa"/>
    </linearGradient>
    <linearGradient xlink:href="#c" id="f" x1="92.604424" x2="263.82959" y1="304.50995" y2="26.290426" gradientUnits="userSpaceOnUse"/>
    <linearGradient xlink:href="#d" id="g" x1="-77.251228" x2="52.210743" y1="96.509933" y2="249.14552" gradientTransform="translate(6.476604 -5.493306)" gradientUnits="userSpaceOnUse"/>
    <linearGradient xlink:href="#e" id="h" x1="58.968456" x2="86.393997" y1="187.86734" y2="220.20204" gradientUnits="userSpaceOnUse"/>
    <mask id="r">
      <path fill="#fff" fill-rule="evenodd" stroke="#fff" stroke-width="1.25" d="M281.5 87.25C163.1173 181.45514 64.982893 280.99684 11.6875 391.75H15s6.5-9.5 11.25-13.5S45.5 364.5 45.5 364.5s12.482756-37.87794 38.292154-74.64749c25.809396-36.76956 61.871846-71.77134 69.296466-79.54952C160.51324 202.52482 176.125 185.75 176.125 185.75"/>
    </mask>
    <mask id="i">
      <path fill="#fff" fill-rule="evenodd" stroke="#fff" stroke-linejoin="round" stroke-width=".625" d="M58.75 323c52.74374-25.35972 85.01705-51.53157 106.5-76.75-23.16208-16.57016-16.35679-15.27745 4.5-7.25 9.81312 3.77692 26.75 4 45.75-28 14.58614-24.56613 27.5-35 27.5-35-16.42037 1.83647-45.03297-3.33251 4.25-8.625 21.18972-26.02629 47.60573-48.5684 72.5-72.125-48.10097 19.60374-30.94199-1.276363 8.875-7.625001 26.56651-36.341988 75.36969-55.870888 129-71.75-37.0127 1.310703-77.56038-.163738-93.5 17.75l.25-8.625c-35.96429 8.944797-120.91456 39.797852-123.25159 46.533289-1.79531 5.174178-7.70271 16.731254-10.69499 27.665553-.9295-6.637109-.72035-13.957413.70711-22.008699-25.08201 11.376989-71.42469 46.024148-73.45072 54.270448-1.17198 4.77015-4.21779 41.11625-1.59099 57.27565-8.65822-13.41931-9.85144-30.2318-11.38693-46.88872-8.81853 8.95956-45.05008 23.53873-38.28732 93.91132-7.49114-8.30429-6.00329-21.59691-8.13173-32.88047C74.27558 233.48435 53.0941 278.86739 54 324"/>
    </mask>
  </defs>
  <path fill="url(#f)" d="M374 169a190 152 0 1 1-380 0 190 152 0 1 1 380 0z" transform="rotate(-31.61 211.4303508 146.23746805)"/>
  <g fill-rule="evenodd" stroke="#000" opacity=".3" transform="translate(10 10)">
    <g stroke-width="1.76927388" transform="matrix(1.0776 .914 -.914 1.0776 332.7542 13.59944)">
      <path d="M-136.65889 148.81632c-12.67062 10.74692 13.03723 33.11533 27.11931 21.0917l39.932147-33.86948"/>
      <path stroke-linejoin="round" d="M-137.82701 149.55768c33.11347 5.5587 58.680752 31.44148 89.372279 67.62677 24.010666 28.30856 61.292742 69.26554 87.931335 41.32225l63.267986-58.37666C34.024108 184.89363-36.005349 62.70089-59.906416 82.973222l-77.920594 66.584458z"/>
      <path stroke-linejoin="round" d="m32.315859 264.25322 79.195931-68.58936c9.9011-24.16109-12.277679-35.33593-23.717906-31.08462L7.3604875 234.93637C27.892439 217.52164 51.41636 248.05262 32.315859 264.25322z"/>
    </g>
    <path stroke-linejoin="round" stroke-width="1.25" d="M208.65753 210.15366c23.56773-11.3316 37.98856-23.02609 47.58788-34.29455-10.34962-7.40412-7.30878-6.8265 2.01076-3.23955 4.38484 1.68765 11.95282 1.78734 20.44268-12.51137 6.51759-10.977 12.28795-15.63921 12.28795-15.63921-7.33719.82059-20.12229-1.48908 1.89904-3.85395 9.46831-11.62945 21.27189-21.70204 32.39551-32.22795-21.49317 8.75963-13.82595-.57032 3.96566-3.40711 11.87083-16.238857 33.67778-24.965045 57.64166-32.06038-16.53856.585667-34.65666-.073164-41.77903 7.931313l.11171-3.853948c-16.07009 3.996845-54.02881 17.783056-55.07307 20.792682-.80221 2.312003-3.44184 7.476103-4.7789 12.361923-.41533-2.96569-.32187-6.23665.31596-9.83424-11.20751 5.08363-31.91501 20.56518-32.82032 24.24991-.52368 2.13147-1.88465 18.37216-.71091 25.59274-3.86879-5.99621-4.40196-13.50862-5.08807-20.9515-3.94042 4.00344-20.12994 10.51792-17.1081 41.96282-3.3473-3.71064-2.68247-9.65024-3.63354-14.69213-10.7295 13.67581-20.19412 33.95453-19.78933 54.12133"/>
  </g>
  <g transform="translate(0 14)">
    <g stroke="#000" transform="matrix(1.0776 .914 -.914 1.0776 332.7542 -.400559)">
      <path fill="#b0b0b0" fill-rule="evenodd" stroke-width="1.76927388" d="M-136.65889 148.81632c-12.67062 10.74692 13.03723 33.11533 27.11931 21.0917l39.932147-33.86948"/>
      <path fill="#b0b0b0" stroke-linecap="round" stroke-width="2.0777669" d="M-100.625 146.125c-2.28482 3.9582-5.66742.35096-4.89471-2.8254.92273-3.79308 5.41014-5.24658 8.781165-3.90748 4.458386 1.77104 6.145743 7.19013 4.226943 11.41622-2.296045 5.05696-8.566658 6.94407-13.459378 4.57802-5.59112-2.7038-7.65666-9.72358-4.91652-15.18524 3.04769-6.07467 10.73826-8.30284 16.704629-5.23644 6.518424 3.35013 8.896819 11.65143 5.538293 18.07584-3.622912 6.93015-12.487572 9.44867-19.334042 5.82386-7.3155-3.87313-9.96575-13.26274-6.09503-20.50241 4.10546-7.67871 13.98811-10.45356 21.597191-6.35347 8.023013 4.32314 10.916311 14.67184 6.600632 22.63024-4.528545 8.35094-15.320093 11.35733-23.610593 6.83775-.3263-.17789-.64699-.36605-.96146-.56409" opacity=".5" transform="matrix(-.10002 .70826 -.95913 -.31627 6.929475 277.7548)"/>
      <path fill="url(#g)" fill-rule="evenodd" stroke-linejoin="round" stroke-width="1.76927388" d="M-137.82701 149.55768c33.11347 5.5587 58.680752 31.44148 89.372279 67.62677 24.010666 28.30856 61.292742 69.26554 87.931335 41.32225l63.267986-58.37666C34.024108 184.89363-36.005349 62.70089-59.906416 82.973222l-77.920594 66.584458z"/>
      <path fill="url(#h)" fill-rule="evenodd" stroke-linejoin="round" stroke-width="1.76927388" d="m32.315859 264.25322 79.195931-68.58936c9.9011-24.16109-12.277679-35.33593-23.717906-31.08462L7.3604875 234.93637C27.892439 217.52164 51.41636 248.05262 32.315859 264.25322z"/>
      <path fill="none" stroke-linecap="round" stroke-width="1.7692734" d="M19.2187925 248.02687125c-2.46811545-3.8465787 2.2892184-5.19637565 4.7566717-3.05207532 2.9465365 2.56062841 2.17844599 7.2146117-.55841256 9.59507617-3.61966102 3.14830997-9.20873687 2.16040334-12.08284626-1.48392617-3.4391736-4.36082213-2.2379383-10.798122 2.1097037-14.05924567 4.96824823-3.72661894 12.15304633-2.340086 15.74796653 2.60103403 3.9984096 5.49570532 2.448512 13.35111508-3.0141123 17.24471616-5.96807135 4.25386617-14.43503835 2.55714676-18.60152306-3.3752369-4.49447837-6.3993882-2.66370386-15.4311905 3.69896613-19.85045105 6.7985526-4.72201206 16.35721143-2.76735186 21.01295724 3.99425773 4.93808474 7.17166308 2.86784904 17.22555525-4.2670871 22.1042416-7.52308028 5.14408275-18.04540267 2.96519264-23.13550323-4.521605-5.34116482-7.85607589-3.05951012-18.82375624 4.76086205-24.11533668.3078028-.2082644.62215544-.40683115.94243148-.59533727" opacity=".5"/>
      <path fill="none" stroke-linecap="round" stroke-width="1.76927584" d="M8.02242277 234.26917549c-9.29978888 7.88786691-7.64758772 23.00779823 2.83944934 28.10441042"/>
    </g>
    <path fill-rule="evenodd" d="m76.918813 57.5.780995-.939453h.368164c.503579.000001.853037-.145995 1.048372-.437988.195333-.291991.323956-.856932.385871-1.694825l.231038-3.25c.067344-.960604.403801-1.753003 1.009375-2.377197.605565-.624177 1.344222-.93627 2.215971-.936279.389317.000009.857893.139658 1.405731.418945l-.114865 1.580567h-.40625c-.00141-.110019-.00672-.201002-.01593-.27295-.100859-.7871-.557536-1.180655-1.370029-1.180664-.79981.000009-1.24756.68344-1.343253 2.050293l-.209854 2.919922c-.061268.87598-.217324 1.548831-.46817 2.018555-.250852.469728-.680923.886557-1.290214 1.250488l3.555659.057129c1.01985.000001 1.886621-.236978 2.600315-.710938l-.034216.476075c-.525221.52474-.927644.860107-1.20727 1.006103-.27964.145996-.664899.218994-1.155778.218994L76.918813 57.5zm11.833321.158691c-.554364 0-1.044474-.216878-1.470329-.650634-.425858-.433756-.680266-.974364-.763223-1.621827-.15616-1.218746.160738-2.345454.950693-3.380126.789951-1.034662 1.72871-1.551995 2.816278-1.552002.588211.000007 1.099859.211595 1.534947.634765.435073.423183.694636.962734.778687 1.618653.162115 1.265303-.152885 2.406822-.945001 3.42456-.792128 1.017741-1.759478 1.526611-2.902052 1.526611zm.652874-.552246c.626298.000001 1.125839-.403075 1.498626-1.209228.372776-.80615.490848-1.742428.354215-2.808838-.179479-1.40071-.696625-2.101068-1.551438-2.101074-.605146.000006-1.096713.415777-1.474702 1.247314-.377995.831548-.500298 1.767826-.366911 2.808838.176219 1.375327.689621 2.062989 1.54021 2.062988zm5.474737.469727.219222-1.955078.218007-3.104004c.02335-.313146.020387-.583979-.008891-.8125-.046633-.363926-.196901-.545892-.450805-.545899-.448569.000007-1.028412.478196-1.739528 1.434571l.041872-.564942c.842526-1.053704 1.623489-1.580559 2.342892-1.580566.609376.000007.958796.349128 1.048256 1.047363.03958.308925.04542.651698.01751 1.028321l-.10868 1.529785h.08252c.36802-1.057939.8529-1.922277 1.45462-2.593018.60172-.670729 1.18822-1.006096 1.75952-1.006103.29621.000007.5691.065599.81867.196777l-.69784 1.142578c-.27083-.165033-.49299-.247553-.66649-.247559-.8252.000006-1.768 1.212408-2.8284 3.637207L96.21569 57.5l-1.335945.076172zm12.127095-1.809082-.0326.488769c-1.22588.935222-2.31277 1.402832-3.26068 1.402832-.60091 0-1.1156-.21053-1.54406-.631591-.42846-.421061-.68553-.965901-.7712-1.634522-.15291-1.193356.1603-2.315832.93962-3.367432.77932-1.051588 1.68737-1.577385 2.72416-1.577392.37662.000007.69758.12696.96287.380859.26527.253913.42394.583991.476.990235.1041.812505-.22115 1.510746-.97574 2.094726-.75462.583988-1.70743.875979-2.85847.875977l.03025.285644c.15832 1.235679.69029 1.853517 1.59589 1.853516.78288.000001 1.68752-.387206 2.71396-1.161621zm-4.37783-1.371094c.93815-.076169 1.6474-.320553 2.12774-.733154.48033-.412594.67848-.946854.59444-1.602783-.08296-.647455-.35931-.971185-.82903-.971192-.50781.000007-.95546.33749-1.34293 1.012451-.38747.674973-.57089 1.439864-.55022 2.294678zm6.51391 3.180176.21923-1.955078.22029-3.135742c.03497-.486649.04297-.804031.024-.952149-.03363-.262363-.17527-.393548-.42495-.393555-.41471.000007-.98586.463385-1.71348 1.390137l.03944-.583984c.79511-.99446 1.56293-1.491692 2.30349-1.491699.60937.000007.955.319505 1.03688.958496.02765.215826.0248.57341-.00854 1.072754l-.11015 1.567871h.08887c.40068-1.100256.87997-1.975174 1.43786-2.624756.55788-.64957 1.10764-.974358 1.64932-.974365.28352.000007.53593.112148.75722.336425.22128.224291.35333.503587.39618.837891.03144.245448.03315.539556.00514.882324l-.10705 1.542481h.08887c.33417-1.057939.77778-1.922277 1.33084-2.593018.55305-.670729 1.09617-1.006096 1.62938-1.006103.74902.000007 1.1745.397793 1.27645 1.193359.03035.236985.03391.528977.01068.875977l-.21883 3.097656c-.03498.486655-.04298.804037-.02399.952148.03415.266602.17606.399903.42575.399903.41893 0 .98983-.465494 1.71267-1.396485l-.03862.590332c-.79512.994467-1.56295 1.491699-2.3035 1.491699-.61361 0-.96136-.319498-1.04322-.958496-.02658-.207355-.02188-.567056.01408-1.079101l.21882-3.097656c.02344-.279292.02705-.482417.01079-.609375-.04501-.351232-.19871-.52685-.46107-.526856-.73633.000006-1.6398 1.271652-2.71041 3.814941L114.69372 57.5l-1.23439.076172.3508-5.040039c.01923-.279292.0207-.482417.00445-.609375-.0461-.359695-.1961-.539545-.45-.539551-.31739.000006-.73834.372402-1.26285 1.117188-.52453.744795-1.01123 1.660973-1.46009 2.748535L110.46618 57.5l-1.32326.076172zm21.28141-1.999512-.03862.590332c-.79934.994467-1.56717 1.491699-2.3035 1.491699-.60937 0-.955-.319498-1.03687-.958496-.02766-.215819-.02453-.571287.00936-1.066406l.15495-2.208984c.03823-.626298.04407-1.043127.01751-1.250489-.04555-.355463-.20585-.533197-.48092-.533203-.19043.000006-.5216.074062-.99351.222168l.02575-.393554 2.97387-1.015625-.22216 2.03125-.22029 3.135742c-.03443.490887-.04298.804037-.02562.939453.03524.275066.1777.412598.42738.412598.41894 0 .98983-.465494 1.71267-1.396485zm-3.12746-6.227051.31467-.863281 1.64039-1.167969-.39625 1.167969-1.55881.863281zm.47954 12.263672.74063-.907715c.45875.211586.92088.31738 1.38637.317383 1.0791-.000003 1.68198-.892906 1.80864-2.678711l.34721-4.919433c.034-.626298.03772-1.043127.01116-1.250489-.04555-.355463-.20374-.533197-.47457-.533203-.19466.000006-.52794.074062-.99986.222168l.0321-.393554 2.96752-1.015625-.21971 2.050293-.11259 1.548828h.10791c.34578-1.066402.81134-1.932856 1.39668-2.599366.58533-.666497 1.1721-.999748 1.76033-.999755.90135.000007 1.42362.5586 1.56677 1.675781.16754 1.307621-.18908 2.545413-1.06986 3.713379-.88079 1.167969-1.89882 1.751953-3.05409 1.751953-.1185 0-.36269-.023275-.73258-.069824-.04709-.004232-.12012-.012696-.21907-.025391-.15918 1.366861-.60381 2.413165-1.3339 3.138916-.73009.725745-1.7045 1.088619-2.92325 1.088623-.30469-.000004-.6333-.03809-.98584-.114258zm5.30605-5.008301c.55879.232749 1.10267.349122 1.63164.349122.76595 0 1.31719-.486653 1.65375-1.459961.39841-1.151039.53879-2.185706.42114-3.104004-.08514-.664383-.32447-.996576-.71802-.996582-.35971.000006-.83129.381923-1.41473 1.145752-.58344.763838-1.07436 1.638756-1.47277 2.624756l-.10101 1.440917zm5.90782.6792.72174-.856934c.60164.402019 1.18811.603028 1.7594.603027.35123.000001.63567-.09204.85329-.276123.21762-.184081.30909-.411538.27439-.682373-.0385-.300454-.3302-.710935-.87508-1.231445l-.65896-.634766c-.64199-.617834-.98955-1.13411-1.04269-1.548828-.07374-.575515.13373-1.086501.62243-1.532959.48869-.446445 1.08427-.66967 1.78675-.669677.38508.000007.82703.08041 1.32583.241211l-.09955 1.402832h-.3999l.00521-.107911c.00358-.03808.00212-.082514-.00438-.1333-.07321-.571283-.47797-.856928-1.2143-.856934-.82519.000006-1.1955.330084-1.11091.990234.04283.334315.34521.778651.90713 1.333008l.59452.577637c.64892.639.99969 1.163739 1.05228 1.574219.07266.567058-.163 1.072755-.70697 1.51709-.54399.444336-1.19895.666503-1.9649.666503-.53743 0-1.14588-.124837-1.82533-.374511zm11.72909-3.230957h-.10791c-.89385 2.403647-1.91206 3.605468-3.05464 3.605468-.67708 0-1.06686-.399902-1.16934-1.199707-.02928-.228514-.03203-.514158-.00824-.856933l.21638-3.116699c.03497-.486649.04298-.804031.024-.952149-.03362-.262363-.17527-.393548-.42494-.393555-.41472.000007-.98587.463385-1.71348 1.390137l.03943-.583984c.79511-.99446 1.56293-1.491692 2.30349-1.491699.61361.000007.96108.317389 1.04241.952148.02711.211594.02242.571295-.01407 1.079102l-.22192 3.123046c-.01923.279299-.02125.478192-.00606.59668.04392.342775.19071.514161.44039.51416.31738.000001.74953-.384032 1.29647-1.152099.54693-.768064 1.02589-1.662025 1.43689-2.681885l.16504-2.278809 1.33595-.076172-.21922 1.955079-.22029 3.135742c-.03498.486655-.04298.804037-.024.952148.03416.266602.17607.399903.42575.399903.41894 0 .98983-.465494 1.71268-1.396485l-.03862.590332c-.79935.994467-1.56718 1.491699-2.3035 1.491699-.61361 0-.96136-.319498-1.04322-.958496-.02767-.215819-.02298-.575519.01407-1.079101l.1165-1.567871zm4.50754 3.522949.21922-1.955078.22029-3.135742c.03497-.486649.04298-.804031.024-.952149-.03362-.262363-.17527-.393548-.42494-.393555-.41472.000007-.98587.463385-1.71348 1.390137l.03944-.583984c.7951-.99446 1.56292-1.491692 2.30348-1.491699.60938.000007.955.319505 1.03689.958496.02764.215826.0248.57341-.00855 1.072754l-.11014 1.567871h.08886c.40069-1.100256.87997-1.975174 1.43786-2.624756.55788-.64957 1.10765-.974358 1.64932-.974365.28352.000007.53593.112148.75722.336425.22128.224291.35333.503587.39618.837891.03144.245448.03315.539556.00514.882324l-.10705 1.542481h.08887c.33417-1.057939.77778-1.922277 1.33085-2.593018.55304-.670729 1.09616-1.006096 1.62938-1.006103.74901.000007 1.17449.397793 1.27644 1.193359.03035.236985.03392.528977.01068.875977l-.21882 3.097656c-.03498.486655-.04299.804037-.024.952148.03415.266602.17607.399903.42575.399903.41894 0 .98983-.465494 1.71268-1.396485l-.03862.590332c-.79512.994467-1.56295 1.491699-2.3035 1.491699-.61362 0-.96136-.319498-1.04322-.958496-.02658-.207355-.02189-.567056.01407-1.079101l.21883-3.097656c.02344-.279292.02704-.482417.01078-.609375-.04501-.351232-.1987-.52685-.46106-.526856-.73634.000006-1.63981 1.271652-2.71041 3.814941L160.7777 57.5l-1.23439.076172.35081-5.040039c.01922-.279292.0207-.482417.00445-.609375-.0461-.359695-.1961-.539545-.45-.539551-.31739.000006-.73834.372402-1.26286 1.117188-.52453.744795-1.01122 1.660973-1.46009 2.748535L156.55016 57.5l-1.32325.076172zm-61.453086 21.17705h-.114258c-.35002 1.066409-.816501 1.933921-1.399446 2.602539-.582954.66862-1.16642 1.00293-1.750401 1.00293-.897137 0-1.417549-.560709-1.561234-1.682129-.097601-.761716.019185-1.559404.350358-2.393066.33117-.833654.807432-1.534012 1.428788-2.101074.417234-.376622.850331-.62947 1.299291-.758545.448954-.129062 1.115652-.193597 2.000097-.193604.142309-.837883.320553-1.477937.534731-1.920166.214165-.442211.542022-.855866.983573-1.240967.753297-.660145 1.635647-.990223 2.647047-.990234.41894.000011.80549.044445 1.15966.133301l-.75414.901367c-.53178-.220042-.97329-.330068-1.32452-.330078-.67709.00001-1.15543.246511-1.435031.739502-.279613.49301-.468077 1.416593-.565394 2.770752l-.352428 5.027343c-.038673.490887-.04933.804038-.031972.939454.035237.275065.177696.412598.427378.412597.423169.000001.996177-.465494 1.719017-1.396484l-.04497.590332c-.79511.994466-1.560825 1.491699-2.297146 1.491699-.613613 0-.961353-.319498-1.043222-.958496-.026575-.207356-.021882-.567056.014079-1.079102l.110143-1.567871zm.182482-2.539062c-.555108-.236973-1.099261-.355463-1.63246-.355469-.765954.000006-1.317205.48666-1.653755 1.459961-.398418 1.151045-.538795 2.185712-.421132 3.104004.085126.664389.324467.996583.718024.996582.363929.000001.83854-.382974 1.423833-1.148926.585285-.765948 1.073171-1.639807 1.463658-2.621582l.101832-1.43457zm5.935254 6.144531c-.55437 0-1.04448-.216878-1.47033-.650635-.42586-.433755-.68027-.974363-.76323-1.621826-.15616-1.218747.16074-2.345454.9507-3.380127.78995-1.034661 1.72871-1.551995 2.81627-1.552002.58822.000007 1.09986.211596 1.53495.634766.43507.423183.69464.962733.77869 1.618652.16211 1.265303-.15289 2.406822-.945 3.424561-.79213 1.017741-1.75948 1.526611-2.90205 1.526611zm.65287-.552246c.6263 0 1.12584-.403075 1.49862-1.209229.37278-.806149.49085-1.742428.35422-2.808837-.17948-1.400711-.69662-2.101068-1.55144-2.101075-.60514.000007-1.09671.415778-1.4747 1.247315-.37799.831547-.5003 1.767826-.36691 2.808838.17622 1.375326.68962 2.062988 1.54021 2.062988zm8.52795-1.561523-.03943.583984c-.86803 1.019857-1.66174 1.529785-2.38114 1.529785-.60091 0-.94285-.32373-1.02581-.971191-.03416-.266601-.03554-.624185-.00415-1.072754l.30844-4.379883c.1084-1.531893.53009-2.724194 1.26508-3.576904.73497-.852691 1.70761-1.279042 2.9179-1.279053.42317.000011.80972.044445 1.15966.133301l-.75333.907715c-.51963-.224274-.95717-.336416-1.31263-.336426-.67286.00001-1.14711.245453-1.42275.736328-.27565.490895-.46132 1.419767-.55701 2.786621l-.35406 5.014648c-.03498.486655-.04297.804038-.02399.952149.03415.266602.17607.399903.42575.399902.28352.000001.78328-.376626 1.49927-1.129883.05588-.059243.15528-.158689.2982-.298339zm2.80355 2.113769c-.55436 0-1.04447-.216878-1.47033-.650635-.42586-.433755-.68026-.974363-.76322-1.621826-.15616-1.218747.16073-2.345454.95069-3.380127.78995-1.034661 1.72871-1.551995 2.81627-1.552002.58822.000007 1.09987.211596 1.53496.634766.43507.423183.69463.962733.77869 1.618652.16211 1.265303-.15289 2.406822-.94501 3.424561-.79212 1.017741-1.75948 1.526611-2.90205 1.526611zm.65287-.552246c.6263 0 1.12584-.403075 1.49863-1.209229.37278-.806149.49084-1.742428.35422-2.808837-.17949-1.400711-.69663-2.101068-1.55144-2.101075-.60515.000007-1.09672.415778-1.47471 1.247315-.37799.831547-.50029 1.767826-.36691 2.808838.17622 1.375326.68962 2.062988 1.54021 2.062988zm5.47474.469727.21922-1.955079.21801-3.104003c.02335-.313146.02039-.583979-.00889-.8125-.04663-.363927-.19691-.545893-.45081-.545899-.44857.000006-1.0284.478196-1.73952 1.43457l.04187-.564941c.84252-1.053704 1.62348-1.580559 2.34289-1.580566.60937.000007.9588.349127 1.04826 1.047363.03958.308925.04541.651698.0175 1.02832l-.10868 1.529785h.08252c.36803-1.057938.8529-1.922276 1.45463-2.593017.60172-.670729 1.18822-1.006097 1.75951-1.006104.29622.000007.56911.0656.81867.196778l-.69783 1.142578c-.27084-.165033-.49299-.247553-.66649-.247559-.8252.000006-1.768 1.212407-2.8284 3.637207L119.33949 82.2l-1.33595.076172zm10.23944-.291993.72174-.856933c.60164.402019 1.18811.603028 1.7594.603027.35124.000001.63567-.09204.85329-.276123.21762-.184081.30909-.411538.27439-.682373-.0385-.300454-.33019-.710935-.87508-1.231445l-.65896-.634766c-.64199-.617835-.98955-1.13411-1.04269-1.548828-.07374-.575515.13374-1.086501.62243-1.532959.48869-.446445 1.08428-.669671 1.78675-.669678.38509.000007.82703.080411 1.32583.241211l-.09955 1.402832h-.3999l.00521-.10791c.00358-.03808.00212-.082514-.00438-.133301-.07321-.571283-.47797-.856927-1.2143-.856933-.82519.000006-1.1955.330084-1.11091.990234.04284.334315.34521.778651.90713 1.333008l.59452.577637c.64893.639.99969 1.163739 1.05229 1.574218.07265.567059-.16301 1.072755-.70698 1.51709-.54399.444336-1.19895.666504-1.9649.666504-.53743 0-1.14588-.124837-1.82533-.374512zm10.83249-1.707519-.03862.590332c-.79934.994466-1.56717 1.491699-2.3035 1.491699-.60937 0-.955-.319498-1.03687-.958496-.02766-.215819-.02454-.571288.00936-1.066406l.15494-2.208985c.03824-.626297.04409-1.043126.01752-1.250488-.04555-.355463-.20586-.533197-.48092-.533203-.19043.000006-.5216.074062-.99351.222168l.02575-.393555 2.97386-1.015625-.22215 2.03125-.22029 3.135742c-.03443.490887-.04298.804038-.02562.939454.03524.275065.1777.412598.42738.412597.41894.000001.98983-.465494 1.71267-1.396484zm-3.12746-6.227051.31467-.863281 1.64039-1.167969-.39625 1.167969-1.55881.863281zm4.71536 1.726563h-1.45361l.3778-.469727h1.10449l.13164-1.796387 1.27331-.317383-.14812 2.11377h2.39307l-.44893.558594c-.55349-.059239-1.04183-.088861-1.465-.088867h-.51416l-.30615 4.348144c-.0314.448569-.03544.763836-.01212.945801.04283.334311.21237.501465.50859.501465.45703 0 1.03784-.338541 1.74242-1.015625l-.03943.583984c-.71686.8125-1.45403 1.21875-2.21151 1.21875-.71941 0-1.13008-.397786-1.23201-1.193359-.03633-.283528-.03804-.660155-.00513-1.129883l.30485-4.259277zm13.97178 2.97705h-.11426c-.34209 1.062177-.80659 1.928631-1.3935 2.599366-.58691.670735-1.17448 1.006103-1.76269 1.006103-.89291 0-1.41093-.558593-1.55408-1.675781-.15778-1.231443.17857-2.437496 1.00907-3.618164.85892-1.222976 2.02048-1.834466 3.48467-1.834473.60514.000007 1.24104.025398 1.90771.076172l-.21628 1.878906-.21395 3.135742c-.03443.490887-.04243.80827-.02399.952149.03415.266602.17607.399903.42575.399902.42317.000001.99406-.465494 1.71267-1.396484l-.03862.590332c-.79934.994466-1.56718 1.491699-2.3035 1.491699-.61361 0-.96135-.319498-1.04322-.958496-.02711-.211588-.02242-.571288.01408-1.079102l.11014-1.567871zm.18248-2.539062c-.56356-.236973-1.10561-.355463-1.62611-.355469-.77019.000006-1.32355.48666-1.6601 1.459961-.39419 1.151045-.53245 2.185712-.41479 3.104004.08513.664389.32236.996583.71168.996582.36393.000001.83867-.381916 1.42424-1.145752.58556-.763832 1.07358-1.636634 1.46407-2.618408l.10101-1.440918zm4.41394 6.062012.21922-1.955079.22029-3.135742c.03497-.486648.04297-.80403.02399-.952148-.03362-.262364-.17527-.393549-.42494-.393555-.41471.000006-.98587.463385-1.71348 1.390137l.03944-.583985c.7951-.994459 1.56294-1.491692 2.30349-1.491699.60938.000007.955.319506 1.03688.958496.02765.215827.0248.573411-.00855 1.072754l-.11014 1.567871h.08887c.40068-1.100256.87997-1.975173 1.43786-2.624756.55787-.64957 1.10765-.974358 1.64932-.974365.28353.000007.53592.112149.75722.336426.22127.22429.35334.503587.39618.837891.03144.245448.03315.539556.00514.882324l-.10705 1.54248h.08887c.33416-1.057938.77777-1.922276 1.33084-2.593017.55305-.670729 1.09618-1.006097 1.62938-1.006104.74902.000007 1.17449.397793 1.27645 1.19336.03034.236984.03391.528976.01067.875976l-.21882 3.097656c-.03498.486655-.04299.804038-.02399.952149.03414.266602.17606.399903.42575.399902.41893.000001.98982-.465494 1.71267-1.396484l-.03862.590332c-.79512.994466-1.56295 1.491699-2.3035 1.491699-.61361 0-.96136-.319498-1.04322-.958496-.02658-.207356-.02189-.567056.01408-1.079102l.21882-3.097656c.02344-.279291.02704-.482416.01079-.609375-.04502-.351231-.19871-.526849-.46107-.526855-.73634.000006-1.6398 1.271652-2.71041 3.814941L164.78236 82.2l-1.23438.076172.3508-5.040039c.01922-.279292.02069-.482417.00444-.609375-.0461-.359695-.1961-.539545-.45-.539551-.31739.000006-.73834.372401-1.26286 1.117187-.52452.744796-1.01122 1.660974-1.46008 2.748535L160.55482 82.2l-1.32325.076172zm18.2018-1.809082-.0326.488769c-1.22588.935222-2.31277 1.402832-3.26068 1.402832-.60091 0-1.1156-.21053-1.54406-.631592-.42847-.42106-.68553-.9659-.7712-1.634521-.1529-1.193356.1603-2.315832.93962-3.367432.77932-1.051588 1.68737-1.577385 2.72416-1.577392.37662.000007.69758.12696.96286.380859.26528.253913.42395.58399.47601.990234.1041.812505-.22115 1.510747-.97575 2.094727-.75461.583987-1.70742.875979-2.85846.875976l.03025.285645c.15832 1.235678.69029 1.853516 1.59589 1.853516.78288 0 1.68752-.387206 2.71396-1.161621zm-4.37783-1.371094c.93815-.076169 1.6474-.320553 2.12774-.733155.48033-.412593.67848-.946853.59444-1.602783-.08296-.647455-.35931-.971185-.82903-.971191-.50782.000006-.95546.33749-1.34293 1.012451-.38748.674972-.57089 1.439864-.55022 2.294678zm6.86174-3.319824h-1.45362l.3778-.469727h1.10449l.13165-1.796387 1.2733-.317383-.14811 2.11377h2.39307l-.44893.558594c-.5535-.059239-1.04183-.088861-1.46501-.088867h-.51416l-.30615 4.348144c-.0314.448569-.03543.763836-.01212.945801.04284.334311.21237.501465.5086.501465.45703 0 1.03783-.338541 1.74242-1.015625l-.03943.583984c-.71686.8125-1.45403 1.21875-2.21152 1.21875-.7194 0-1.13007-.397786-1.23201-1.193359-.03632-.283528-.03803-.660155-.00512-1.129883l.30485-4.259277zm4.62102 5.300293 1.14606-.914063 1.09252 1.244141c.06298.854817-.11812 1.513915-.54328 1.977295-.42517.463377-1.06093.695066-1.90728.695068l.30504-.393555c.65202-.063478.99104-.505697 1.01703-1.32666l-1.11009-1.282226zM99.73424 105.15439l-.03177.49512c-1.26766.93945-2.34582 1.40918-3.23448 1.40918-.613613 0-1.133182-.20736-1.558713-.62207-.425534-.41471-.681949-.96273-.769245-1.64404-.157786-1.23144.162801-2.36238.961763-3.39282.798956-1.03043 1.757025-1.545652 2.874225-1.545659.49088.000007.99347.107917 1.50778.323729l-.21626 1.63135h-.39356l.00684-.09522c.01683-.19888.01928-.34488.00736-.43798-.07483-.58398-.50791-.87597-1.29925-.87598-.74479.00001-1.31378.39779-1.706958 1.19336-.393184.79558-.512779 1.79427-.358787 2.99609.146938 1.14681.647815 1.72022 1.502635 1.72022.8125 0 1.7153-.38509 2.70842-1.15528zm3.74791 1.9043c-.55437 0-1.04448-.21688-1.47033-.65063-.42586-.43376-.68027-.97437-.76323-1.62183-.15616-1.21875.16074-2.34545.9507-3.38013.78995-1.03466 1.72871-1.551992 2.81628-1.551999.58821.000007 1.09985.211599 1.53494.634769.43508.42318.69464.96273.77869 1.61865.16211 1.2653-.15289 2.40682-.945 3.42456-.79213 1.01774-1.75948 1.52661-2.90205 1.52661zm.65287-.55225c.6263.00001 1.12584-.40307 1.49863-1.20922.37277-.80615.49084-1.74243.35421-2.80884-.17948-1.40071-.69662-2.10107-1.55144-2.10108-.60514.00001-1.09671.41578-1.4747 1.24732-.37799.83155-.5003 1.76782-.36691 2.80884.17622 1.37532.68962 2.06299 1.54021 2.06298zm5.39222.46973.21922-1.95508.22029-3.13574c.03497-.48665.04297-.80403.024-.95215-.03362-.26236-.17527-.39355-.42494-.39355-.41472 0-.98588.46338-1.71349 1.39014l.03944-.58399c.7951-.99446 1.56293-1.491692 2.30349-1.491699.60938.000007.95473.317389 1.03606.952149.02765.21583.02508.57553-.00773 1.0791l-.11014 1.56787h.09522c.39015-1.08333.87633-1.95401 1.45852-2.61206.58219-.65803 1.16104-.987052 1.73657-.987059.694.000007 1.09035.385099 1.18904 1.155269.03198.24969.03505.55437.00921.91407l-.21882 3.09765c-.03444.49089-.04244.80827-.024.95215.03415.2666.17607.3999.42575.3999.42317 0 .99618-.46549 1.71902-1.39648l-.04497.59033c-.79511.99447-1.56294 1.4917-2.30349 1.4917-.60939 0-.95501-.3195-1.03688-.9585-.02711-.21158-.02242-.57128.01408-1.0791l.21719-3.11035c.01987-.2412.01924-.44433-.0019-.60937-.04393-.34277-.19284-.51416-.44674-.51416-.80828 0-1.7654 1.28223-2.87138 3.84668l-.17303 2.26611-1.32959.07617zm7.93524-.29199.72175-.85693c.60163.40201 1.1881.60302 1.75939.60302.35123 0 .63567-.09204.85329-.27612.21763-.18408.30908-.41154.27439-.68237-.03851-.30046-.33019-.71094-.87508-1.23145l-.65896-.63476c-.64199-.61784-.98956-1.13411-1.04269-1.54883-.07375-.57552.13373-1.0865.62242-1.53296.4887-.44645 1.08429-.669672 1.78676-.669679.38509.000007.82703.080411 1.32583.241209l-.09955 1.40283h-.3999l.00521-.10791c.00358-.03808.00212-.08251-.00439-.1333-.0732-.57128-.47796-.85692-1.21429-.85693-.8252.00001-1.19549.33008-1.11091.99023.04284.33432.34521.77865.90713 1.33301l.59452.57764c.64893.639.99969 1.16374 1.05229 1.57422.07265.56706-.16301 1.07275-.70699 1.51709-.54398.44433-1.19894.6665-1.96489.6665-.53744 0-1.14588-.12484-1.82533-.37451zm12.06929-1.51709-.03259.48877c-1.22587.93522-2.31277 1.40283-3.26069 1.40283-.60091 0-1.1156-.21053-1.54406-.63159-.42846-.42106-.68553-.9659-.7712-1.63452-.1529-1.19336.16031-2.31584.93963-3.36743.77931-1.05159 1.68737-1.57739 2.72416-1.577397.37662.000007.69757.12696.96286.380857.26528.25392.42394.58399.476.99024.1041.8125-.22115 1.51074-.97574 2.09472-.75461.58399-1.70743.87598-2.85846.87598l.03025.28564c.15832 1.23568.69028 1.85352 1.59589 1.85352.78287 0 1.68751-.38721 2.71395-1.16162zm-4.37783-1.37109c.93815-.07617 1.6474-.32056 2.12774-.73316.48034-.41259.67848-.94685.59445-1.60278-.08297-.64746-.35931-.97119-.82903-.97119-.50782 0-.95547.33749-1.34294 1.01245-.38747.67497-.57088 1.43986-.55022 2.29468zm11.39671 1.35839-.03178.49512c-1.26765.93945-2.34581 1.40918-3.23448 1.40918-.61361 0-1.13318-.20736-1.55871-.62207-.42553-.41471-.68195-.96273-.76924-1.64404-.15779-1.23144.1628-2.36238.96176-3.39282.79896-1.03043 1.75703-1.545652 2.87423-1.545659.49087.000007.99346.107917 1.50778.323729l-.21627 1.63135h-.39355l.00684-.09522c.01683-.19888.01928-.34488.00736-.43798-.07483-.58398-.50792-.87597-1.29926-.87598-.74479.00001-1.31378.39779-1.70695 1.19336-.39319.79558-.51278 1.79427-.35878 2.99609.14693 1.14681.64781 1.72022 1.50263 1.72022.8125 0 1.7153-.38509 2.70842-1.15528zm2.57441-4.67822h-1.45362l.37781-.46972h1.10449l.13164-1.796392 1.2733-.317383-.1481 2.113775h2.39306l-.44893.55859c-.5535-.05924-1.04183-.08886-1.46501-.08887h-.51416l-.30615 4.34815c-.03139.44857-.03543.76383-.01211.9458.04283.33431.21236.50146.50859.50146.45702 0 1.03783-.33854 1.74243-1.01562l-.03944.58398c-.71686.8125-1.45403 1.21875-2.21152 1.21875-.7194 0-1.13007-.39779-1.23201-1.19336-.03632-.28353-.03803-.66015-.00512-1.12988l.30485-4.25928zm10.4653 4.69092-.03258.48877c-1.22588.93522-2.31278 1.40283-3.26069 1.40283-.60092 0-1.11561-.21053-1.54407-.63159-.42846-.42106-.68553-.9659-.77119-1.63452-.15291-1.19336.16031-2.31584.93962-3.36743.77932-1.05159 1.68737-1.57739 2.72416-1.577397.37662.000007.69758.12696.96286.380857.26528.25392.42395.58399.476.99024.10411.8125-.22115 1.51074-.97574 2.09472-.75461.58399-1.70742.87598-2.85846.87598l.03025.28564c.15832 1.23568.69029 1.85352 1.59589 1.85352.78287 0 1.68752-.38721 2.71395-1.16162zm-4.37783-1.37109c.93816-.07617 1.64741-.32056 2.12774-.73316.48034-.41259.67848-.94685.59445-1.60278-.08297-.64746-.35931-.97119-.82903-.97119-.50782 0-.95546.33749-1.34294 1.01245-.38747.67497-.57088 1.43986-.55022 2.29468zm6.86174-3.31983h-1.45361l.37781-.46972h1.10449l.13164-1.796392 1.2733-.317383-.1481 2.113775h2.39306l-.44893.55859c-.5535-.05924-1.04184-.08886-1.46501-.08887h-.51416l-.30615 4.34815c-.03139.44857-.03543.76383-.01211.9458.04283.33431.21236.50146.50859.50146.45702 0 1.03783-.33854 1.74242-1.01562l-.03943.58398c-.71686.8125-1.45404 1.21875-2.21152 1.21875-.7194 0-1.13007-.39779-1.23201-1.19336-.03632-.28353-.03803-.66015-.00512-1.12988l.30484-4.25928zm10.12511 2.97705h-.10791c-.89385 2.40365-1.91206 3.60547-3.05464 3.60547-.67708 0-1.06686-.3999-1.16934-1.19971-.02928-.22851-.03203-.51415-.00824-.85693l.21638-3.1167c.03498-.48665.04298-.80403.024-.95215-.03362-.26236-.17526-.39355-.42493-.39355-.41472 0-.98588.46338-1.71349 1.39014l.03944-.58399c.7951-.99446 1.56293-1.491692 2.30349-1.491699.61361.000007.96107.317389 1.0424.952149.02712.21159.02242.57129-.01407 1.0791l-.22191 3.12305c-.01924.2793-.02125.47819-.00607.59668.04392.34277.19071.51416.44039.51416.31738 0 .74953-.38403 1.29647-1.1521.54693-.76807 1.02589-1.66203 1.43689-2.68189l.16505-2.2788 1.33595-.076177-.21923 1.955077-.22029 3.13574c-.03498.48666-.04298.80404-.024.95215.03416.2666.17607.3999.42575.3999.41894 0 .98984-.46549 1.71268-1.39648l-.03862.59033c-.79935.99447-1.56718 1.4917-2.3035 1.4917-.61361 0-.96136-.3195-1.04322-.9585-.02766-.21581-.02297-.57551.01407-1.0791l.1165-1.56787zm4.59007 3.52295.21921-1.95508.21802-3.104c.02334-.31315.02038-.58398-.0089-.8125-.04663-.36393-.19689-.54589-.4508-.5459-.44857.00001-1.02841.4782-1.73953 1.43457l.04187-.56494c.84253-1.0537 1.62349-1.58056 2.34289-1.580567.60937.000007.9588.349127 1.04826 1.047367.03958.30892.04541.6517.01751 1.02832l-.10868 1.52978h.08252c.36802-1.05794.8529-1.92227 1.45462-2.59302.60172-.67073 1.18822-1.006092 1.75952-1.006099.29622.000007.5691.065599.81867.196779l-.69784 1.14258c-.27083-.16504-.49299-.24756-.66649-.24756-.8252 0-1.768 1.2124-2.8284 3.6372l-.16651 2.3169-1.33594.07617zm-68.686 21.17705h-.11426c-.3421 1.06218-.8066 1.92863-1.39351 2.59937-.58691.67073-1.174474 1.0061-1.762687 1.0061-.892905 0-1.410929-.55859-1.554073-1.67578-.157786-1.23144.178566-2.4375 1.009061-3.61816.858921-1.22298 2.020479-1.83447 3.484679-1.83448.60513.00001 1.24104.0254 1.9077.07617l-.21628 1.87891-.21394 3.13574c-.03444.49089-.04244.80827-.024.95215.03415.2666.17607.3999.42575.3999.42317 0 .99406-.46549 1.71267-1.39648l-.03862.59033c-.79934.99447-1.56717 1.4917-2.30349 1.4917-.61362 0-.96136-.3195-1.04323-.9585-.02711-.21158-.02242-.57128.01408-1.0791l.11015-1.56787zm.18248-2.53906c-.56357-.23697-1.10561-.35546-1.62611-.35547-.77019.00001-1.323557.48666-1.660107 1.45996-.394185 1.15105-.532447 2.18571-.414784 3.10401.085125.66438.322351.99658.711676.99658.363929 0 .838675-.38192 1.424245-1.14575.58555-.76384 1.07357-1.63664 1.46406-2.61841l.10102-1.44092zm8.50111 2.53906h-.11426c-.35002 1.06641-.8165 1.93392-1.39944 2.60254-.58296.66862-1.16642 1.00293-1.75041 1.00293-.89713 0-1.41754-.56071-1.56123-1.68213-.0976-.76171.01919-1.5594.35036-2.39306.33117-.83366.80743-1.53402 1.42879-2.10108.41723-.37662.85033-.62947 1.29929-.75854.44895-.12907 1.11565-.1936 2.00009-.19361.14231-.83788.32056-1.47794.53474-1.92016.21416-.44221.54202-.85587.98357-1.24097.75329-.66015 1.63564-.99022 2.64705-.99023.41893.00001.80548.04444 1.15965.1333l-.75413.90136c-.53179-.22004-.97329-.33006-1.32452-.33007-.67709.00001-1.15544.24651-1.43504.7395-.27961.49301-.46807 1.41659-.56539 2.77075l-.35243 5.02734c-.03867.49089-.04933.80404-.03197.93946.03524.27506.1777.41259.42738.41259.42317 0 .99617-.46549 1.71902-1.39648l-.04497.59033c-.79511.99447-1.56083 1.4917-2.29715 1.4917-.61361 0-.96135-.3195-1.04322-.9585-.02658-.20735-.02188-.56705.01408-1.0791l.11014-1.56787zm.18248-2.53906c-.55511-.23697-1.09926-.35546-1.63246-.35547-.76595.00001-1.3172.48666-1.65375 1.45996-.39842 1.15105-.5388 2.18571-.42113 3.10401.08512.66438.32446.99658.71802.99658.36393 0 .83854-.38298 1.42383-1.14893s1.07317-1.63981 1.46366-2.62158l.10183-1.43457zm8.07424 4.0625-.03862.59033c-.79934.99447-1.56717 1.4917-2.3035 1.4917-.60937 0-.955-.3195-1.03687-.9585-.02765-.21581-.02453-.57128.00936-1.0664l.15495-2.20899c.03824-.62629.04408-1.04312.01751-1.25048-.04555-.35547-.20586-.5332-.48092-.53321-.19043.00001-.5216.07406-.9935.22217l.02574-.39355 2.97387-1.01563-.22216 2.03125-.22028 3.13574c-.03444.49089-.04298.80404-.02563.93946.03524.27506.1777.41259.42738.41259.41894 0 .98983-.46549 1.71267-1.39648zm-3.12746-6.22705.31468-.86328 1.64039-1.16797-.39625 1.16797-1.55882.86328zm.47955 12.26367.74063-.90771c.45875.21158.92087.31737 1.38636.31738 1.0791-.00001 1.68198-.89291 1.80864-2.67871l.34721-4.91944c.03401-.62629.03773-1.04312.01116-1.25048-.04555-.35547-.20374-.5332-.47457-.53321-.19466.00001-.52795.07406-.99985.22217l.03209-.39355 2.96753-1.01563-.21972 2.05029-.11259 1.54883h.10791c.34578-1.0664.81135-1.93285 1.39669-2.59936.58533-.6665 1.1721-.99975 1.76033-.99976.90135.00001 1.42361.5586 1.56676 1.67578.16754 1.30762-.18908 2.54541-1.06986 3.71338-.88079 1.16797-1.89881 1.75195-3.05408 1.75195-.1185 0-.36269-.02327-.73258-.06982-.0471-.00423-.12012-.0127-.21908-.02539-.15918 1.36686-.60381 2.41316-1.33389 3.13892-.73009.72574-1.70451 1.08861-2.92326 1.08862-.30469-.00001-.6333-.03809-.98583-.11426zm5.30604-5.0083c.55879.23275 1.10267.34912 1.63164.34912.76595 0 1.3172-.48665 1.65376-1.45996.3984-1.15104.53878-2.18571.42113-3.104-.08514-.66439-.32447-.99658-.71802-.99659-.35971.00001-.83128.38193-1.41473 1.14576-.58344.76383-1.07436 1.63875-1.47276 2.62475l-.10102 1.44092zm10.87507-1.02832-.03861.59033c-.79935.99447-1.56718 1.4917-2.3035 1.4917-.60938 0-.95501-.3195-1.03687-.9585-.02766-.21581-.02454-.57128.00935-1.0664l.15495-2.20899c.03825-.62629.04408-1.04312.01751-1.25048-.04555-.35547-.20585-.5332-.48091-.53321-.19044.00001-.5216.07406-.99351.22217l.02575-.39355 2.97387-1.01563-.22216 2.03125-.22029 3.13574c-.03444.49089-.04298.80404-.02562.93946.03524.27506.17769.41259.42737.41259.41894 0 .98984-.46549 1.71267-1.39648zm-3.12746-6.22705.31469-.86328 1.64038-1.16797-.39624 1.16797-1.55883.86328zm3.0606 7.93457.72175-.85693c.60164.40201 1.1881.60302 1.75939.60302.35124 0 .63567-.09204.85329-.27612.21763-.18408.30909-.41154.27439-.68237-.0385-.30046-.33019-.71094-.87508-1.23145l-.65896-.63476c-.64199-.61784-.98955-1.13411-1.04269-1.54883-.07374-.57552.13374-1.0865.62243-1.53296.48869-.44645 1.08428-.66967 1.78676-.66968.38508.00001.82702.08041 1.32582.24121l-.09955 1.40283h-.3999l.00521-.10791c.00358-.03808.00212-.08251-.00438-.1333-.07321-.57128-.47797-.85692-1.2143-.85693-.82519.00001-1.19549.33008-1.11091.99023.04284.33432.34521.77865.90713 1.33301l.59452.57764c.64893.639.99969 1.16374 1.05229 1.57422.07265.56706-.16301 1.07275-.70698 1.51709-.54399.44433-1.19895.6665-1.9649.6665-.53743 0-1.14587-.12484-1.82533-.37451zm10.83249-1.70752-.03862.59033c-.79934.99447-1.56717 1.4917-2.3035 1.4917-.60937 0-.955-.3195-1.03687-.9585-.02765-.21581-.02454-.57128.00936-1.0664l.15494-2.20899c.03825-.62629.04409-1.04312.01752-1.25048-.04555-.35547-.20586-.5332-.48092-.53321-.19043.00001-.5216.07406-.9935.22217l.02574-.39355 2.97387-1.01563-.22216 2.03125-.22029 3.13574c-.03443.49089-.04298.80404-.02561.93946.03523.27506.17769.41259.42737.41259.41894 0 .98983-.46549 1.71267-1.39648zm-3.12746-6.22705.31468-.86328 1.64038-1.16797-.39624 1.16797-1.55882.86328zm9.25033 6.40478-.03178.49512c-1.26765.93945-2.34581 1.40918-3.23448 1.40918-.61361 0-1.13318-.20736-1.5587-.62207-.42554-.41471-.68196-.96273-.76925-1.64404-.15779-1.23144.1628-2.36238.96176-3.39283.79896-1.03042 1.75703-1.54564 2.87423-1.54565.49087.00001.99346.10792 1.50778.32373l-.21627 1.63135h-.39355l.00684-.09522c.01683-.19888.01928-.34488.00736-.43798-.07483-.58398-.50792-.87597-1.29926-.87598-.74479.00001-1.31378.39779-1.70695 1.19336-.39318.79558-.51278 1.79427-.35878 2.99609.14693 1.14681.64781 1.72022 1.50263 1.72022.8125 0 1.7153-.38509 2.70842-1.15528zm5.88689-.17773-.03861.59033c-.79935.99447-1.56718 1.4917-2.3035 1.4917-.60938 0-.95501-.3195-1.03687-.9585-.02766-.21581-.02454-.57128.00935-1.0664l.15495-2.20899c.03825-.62629.04408-1.04312.01751-1.25048-.04555-.35547-.20585-.5332-.48091-.53321-.19044.00001-.5216.07406-.99351.22217l.02575-.39355 2.97387-1.01563-.22216 2.03125-.22029 3.13574c-.03444.49089-.04298.80404-.02562.93946.03524.27506.1777.41259.42737.41259.41894 0 .98984-.46549 1.71267-1.39648zm-3.12745-6.22705.31468-.86328 1.64038-1.16797-.39624 1.16797-1.55882.86328zm4.36754 8.22656.21922-1.95508.22029-3.13574c.03498-.48665.04297-.80403.02399-.95215-.03361-.26236-.17526-.39355-.42493-.39355-.41471 0-.98588.46338-1.71349 1.39013l.03944-.58398c.7951-.99446 1.56294-1.49169 2.3035-1.4917.60937.00001.95472.31739 1.03606.95215.02765.21583.02507.57553-.00774 1.0791l-.11014 1.56787h.09521c.39017-1.08333.87634-1.95401 1.45854-2.61206.58218-.65803 1.16104-.98705 1.73656-.98706.69401.00001 1.09035.3851 1.18904 1.15527.03198.24968.03505.55437.00921.91407l-.21882 3.09765c-.03444.49089-.04244.80827-.024.95215.03415.2666.17607.3999.42575.3999.42317 0 .99618-.46549 1.71902-1.39648l-.04496.59033c-.79512.99447-1.56295 1.4917-2.3035 1.4917-.60938 0-.95501-.3195-1.03688-.9585-.02711-.21158-.02242-.57128.01408-1.0791l.21719-3.11035c.01988-.2412.01924-.44433-.0019-.60937-.04392-.34277-.19284-.51416-.44674-.51416-.80827 0-1.7654 1.28223-2.87138 3.84668l-.17302 2.26611-1.3296.07617zm9.48602-.17773c-.54035-.25391-.8596-.76384-.95774-1.52979-.16049-1.2526.19224-2.46289 1.05822-3.63086.84015-1.13834 1.99231-1.70751 3.45651-1.70752.27929.00001.87287.0254 1.78076.07617l-.20995 1.87891-.10964 1.47266c-.05313.77441-.0836 1.3457-.09144 1.71386-.04026 1.50228-.14055 2.54436-.30086 3.12622-.16031.58187-.50302 1.1521-1.02812 1.7107-.77187.81249-1.7291 1.21874-2.87167 1.21875-.7448-.00001-1.36851-.14494-1.87114-.43482-.50264-.28988-.78378-.66756-.84342-1.13305-.11929-.93099.54354-1.8514 1.98849-2.76123zm3.9394-5.86524c-.53981-.24967-1.0615-.3745-1.56507-.37451-.56283.00001-1.00665.2518-1.33144.75537-.25796.39779-.46308.98495-.61537 1.76148-.15229.77653-.1932 1.43986-.1227 1.98999.07644.59668.30299.89502.67962.89502.83365 0 1.786-1.20394 2.85703-3.61182l.09793-1.41553zm-.17858 2.52002h-.10156c-.32115.99447-.75611 1.79427-1.30486 2.39942-.54877.60514-1.16127.96061-1.83748 1.0664-1.01059.76595-1.47386 1.47689-1.38982 2.13281.05423.42318.30675.78394.75758 1.08228.45081.29834.97034.44751 1.55856.44751.75748 0 1.3174-.29517 1.67975-.8855.36234-.59033.55501-1.52238.57801-2.79614l.05982-3.44678zm13.20691 1.71387-.03259.48877c-1.22587.93522-2.31277 1.40283-3.26069 1.40283-.60091 0-1.11559-.21053-1.54405-.63159-.42847-.42106-.68554-.9659-.77121-1.63452-.1529-1.19336.16031-2.31583.93964-3.36743.77931-1.05159 1.68736-1.57739 2.72414-1.5774.37663.00001.69758.12696.96287.38086.26528.25392.42394.58399.476.99024.1041.8125-.22115 1.51074-.97574 2.09472-.7546.58399-1.70743.87598-2.85847.87598l.03026.28564c.15831 1.23568.69028 1.85352 1.59589 1.85352.78287 0 1.68752-.38721 2.71395-1.16162zm-4.37783-1.37109c.93815-.07617 1.6474-.32056 2.12774-.73316.48034-.41259.67848-.94685.59444-1.60278-.08296-.64746-.3593-.97119-.82903-.97119-.50781 0-.95546.33749-1.34292 1.01245-.38748.67497-.5709 1.43986-.55023 2.29468zm9.64965 1.14892-.03943.58399c-.86803 1.01985-1.66174 1.52978-2.38113 1.52978-.60092 0-.94285-.32373-1.02581-.97119-.03416-.2666-.03555-.62419-.00415-1.07275l.30844-4.37989c.10839-1.53189.53009-2.72419 1.26508-3.5769.73497-.85269 1.7076-1.27904 2.91789-1.27905.42317.00001.80973.04444 1.15966.1333l-.75332.90771c-.51963-.22427-.95718-.33641-1.31264-.33642-.67286.00001-1.1471.24545-1.42274.73632-.27564.4909-.46132 1.41977-.55701 2.78662l-.35406 5.01465c-.03498.48666-.04298.80404-.024.95215.03416.2666.17608.3999.42575.3999.28353 0 .78329-.37662 1.49928-1.12988.05588-.05924.15528-.15869.29819-.29834zm4.94255.03174-.03862.59033c-.79934.99447-1.56717 1.4917-2.3035 1.4917-.60938 0-.955-.3195-1.03687-.9585-.02765-.21581-.02454-.57128.00935-1.0664l.15495-2.20899c.03825-.62629.04408-1.04312.01752-1.25048-.04556-.35547-.20586-.5332-.48092-.53321-.19043.00001-.5216.07406-.9935.22217l.02574-.39355 2.97387-1.01563-.22216 2.03125-.22029 3.13574c-.03443.49089-.04298.80404-.02562.93946.03524.27506.1777.41259.42738.41259.41894 0 .98983-.46549 1.71267-1.39648zm-3.12746-6.22705.31468-.86328 1.64038-1.16797-.39624 1.16797-1.55882.86328zm4.71536 1.72656h-1.45361l.3778-.46973h1.1045l.13164-1.79638 1.2733-.31739-.14811 2.11377h2.39307l-.44894.5586c-.55349-.05924-1.04183-.08886-1.465-.08887h-.51416l-.30615 4.34815c-.03139.44856-.03544.76383-.01211.9458.04282.33431.21235.50146.50858.50146.45703 0 1.03783-.33854 1.74243-1.01562l-.03944.58398c-.71686.8125-1.45403 1.21875-2.21151 1.21875-.71941 0-1.13008-.39779-1.23201-1.19336-.03633-.28353-.03804-.66015-.00513-1.12988l.30485-4.25928zm4.62102 5.30029 1.14607-.91406 1.09251 1.24414c.06298.85482-.11811 1.51392-.54328 1.9773-.42516.46337-1.06092.69506-1.90728.69507l.30505-.39356c.65202-.06348.99103-.5057 1.01702-1.32666l-1.11009-1.28223zm-99.595345 25.60772.721742-.85694c.60164.40202 1.188104.60303 1.759395.60303.351234 0 .635665-.09204.853293-.27612.217621-.18408.309082-.41154.274385-.68237-.038503-.30046-.330192-.71094-.875071-1.23145l-.658968-.63476c-.641992-.61784-.989555-1.13411-1.04269-1.54883-.073744-.57552.133733-1.0865.622429-1.53296.488691-.44645 1.084276-.66967 1.786753-.66968.385087.00001.827027.08041 1.325827.24121l-.09955 1.40283h-.3999l.00521-.10791c.00358-.03808.00212-.08251-.00438-.1333-.07321-.57128-.477968-.85692-1.214292-.85693-.825198.00001-1.195504.33008-1.110915.99023.042833.33432.345208.77865.907127 1.33301l.59452.57764c.648928.639.99969 1.16374 1.05229 1.57422.07265.56706-.16301 1.07275-.706982 1.51709-.543983.44433-1.198946.6665-1.964894.6665-.537436 0-1.14588-.12484-1.825329-.37451zm12.069285-1.51709-.03259.48877c-1.22588.93522-2.31277 1.40283-3.26068 1.40283-.60092 0-1.1156-.21053-1.54406-.63159-.42847-.42106-.68553-.9659-.7712-1.63452-.15291-1.19336.1603-2.31584.93962-3.36743s1.68737-1.57739 2.72416-1.5774c.37662.00001.69758.12696.96286.38086.26528.25391.42394.58399.476.99024.1041.8125-.22115 1.51074-.97574 2.09472-.75461.58399-1.70743.87598-2.85846.87598l.03025.28564c.15832 1.23568.69028 1.85352 1.59589 1.85352.78287 0 1.68752-.38721 2.71395-1.16162zm-4.37783-1.3711c.93816-.07616 1.6474-.32055 2.12775-.73315.48033-.41259.67847-.94685.59444-1.60278-.08297-.64746-.35931-.97119-.82903-.97119-.50782 0-.95546.33749-1.34293 1.01245-.38748.67497-.57089 1.43986-.55023 2.29467zm10.6011-.34277h-.11425c-.35002 1.06641-.81651 1.93392-1.39945 2.60254-.58295.66862-1.16642 1.00293-1.7504 1.00293-.89714 0-1.41755-.56071-1.56124-1.68213-.0976-.76172.01919-1.5594.35036-2.39307.33117-.83365.80743-1.53401 1.42879-2.10107.41724-.37662.85033-.62947 1.29929-.75854.44896-.12907 1.11565-.1936 2.0001-.19361.14231-.83788.32055-1.47794.53473-1.92016.21417-.44221.54202-.85587.98357-1.24097.7533-.66015 1.63565-.99022 2.64705-.99023.41894.00001.80549.04444 1.15966.1333l-.75414.90136c-.53179-.22004-.97329-.33006-1.32452-.33008-.67709.00002-1.15543.24652-1.43503.73951-.27961.49301-.46808 1.41659-.56539 2.77075l-.35243 5.02734c-.03868.49089-.04933.80404-.03197.93946.03523.27506.17769.41259.42737.41259.42317 0 .99618-.46549 1.71902-1.39648l-.04497.59033c-.79511.99447-1.56083 1.4917-2.29715 1.4917-.61361 0-.96135-.3195-1.04322-.9585-.02657-.20735-.02188-.56705.01408-1.0791l.11014-1.56787zm.18249-2.53906c-.55511-.23697-1.09926-.35546-1.63246-.35547-.76596.00001-1.31721.48666-1.65376 1.45996-.39842 1.15105-.53879 2.18571-.42113 3.10401.08512.66438.32447.99658.71802.99658.36393 0 .83854-.38298 1.42384-1.14893.58528-.76595 1.07317-1.63981 1.46365-2.62158l.10184-1.43457zm12.81751 2.53906h-.11426c-.35002 1.06641-.81649 1.93392-1.39944 2.60254-.58295.66862-1.16642 1.00293-1.7504 1.00293-.89714 0-1.41755-.56071-1.56124-1.68213-.0976-.76172.01919-1.5594.35037-2.39307.33116-.83365.80742-1.53401 1.42878-2.10107.41724-.37662.85033-.62947 1.29929-.75854.44896-.12907 1.11566-.1936 2.0001-.19361.14231-.83788.32055-1.47794.53473-1.92016.21417-.44221.54202-.85587.98357-1.24097.7533-.66015 1.63565-.99022 2.64705-.99023.41894.00001.80549.04444 1.15966.1333l-.75414.90136c-.53179-.22004-.97329-.33006-1.32452-.33008-.67709.00002-1.15543.24652-1.43504.73951-.27961.49301-.46807 1.41659-.56539 2.77075l-.35243 5.02734c-.03867.49089-.04932.80404-.03196.93946.03523.27506.17769.41259.42737.41259.42317 0 .99618-.46549 1.71902-1.39648l-.04497.59033c-.79511.99447-1.56083 1.4917-2.29715 1.4917-.61361 0-.96135-.3195-1.04322-.9585-.02657-.20735-.02188-.56705.01408-1.0791l.11014-1.56787zm.18248-2.53906c-.5551-.23697-1.09925-.35546-1.63245-.35547-.76596.00001-1.31721.48666-1.65376 1.45996-.39841 1.15105-.53879 2.18571-.42113 3.10401.08513.66438.32447.99658.71802.99658.36393 0 .83854-.38298 1.42384-1.14893.58528-.76595 1.07317-1.63981 1.46365-2.62158l.10183-1.43457zm5.93525 6.14453c-.55436 0-1.04447-.21688-1.47032-.65063-.42586-.43376-.68027-.97437-.76323-1.62183-.15616-1.21875.16074-2.34546.9507-3.38013.78994-1.03466 1.72871-1.55199 2.81628-1.552.58821.00001 1.09985.2116 1.53494.63477.43507.42318.69464.96273.77869 1.61865.16211 1.2653-.15289 2.40682-.945 3.42456-.79213 1.01774-1.75948 1.52661-2.90206 1.52661zm.65288-.55225c.62629 0 1.12584-.40307 1.49862-1.20922.37278-.80615.49086-1.74243.35422-2.80884-.17947-1.40071-.69662-2.10107-1.55143-2.10108-.60515.00001-1.09672.41578-1.47471 1.24732-.378.83155-.5003 1.76782-.36691 2.80884.17621 1.37532.68962 2.06298 1.54021 2.06298zm14.60573-1.33935-.03259.48877c-1.22587.93522-2.31277 1.40283-3.26068 1.40283-.60092 0-1.1156-.21053-1.54406-.63159-.42846-.42106-.68553-.9659-.7712-1.63452-.15291-1.19336.1603-2.31584.93963-3.36743.77932-1.05159 1.68737-1.57739 2.72415-1.5774.37663.00001.69758.12696.96286.38086.26528.25391.42394.58399.476.99024.1041.8125-.22115 1.51074-.97574 2.09472-.7546.58399-1.70743.87598-2.85846.87598l.03025.28564c.15833 1.23568.69028 1.85352 1.59589 1.85352.78287 0 1.68752-.38721 2.71395-1.16162zm-4.37783-1.3711c.93815-.07616 1.6474-.32055 2.12774-.73315.48034-.41259.67848-.94685.59445-1.60278-.08297-.64746-.35931-.97119-.82903-.97119-.50782 0-.95547.33749-1.34293 1.01245-.38748.67497-.57088 1.43986-.55023 2.29467zm10.17423 1.18067-.03862.59033c-.79934.99447-1.56717 1.4917-2.3035 1.4917-.60937 0-.955-.3195-1.03687-.9585-.02765-.21582-.02454-.57128.00936-1.0664l.15495-2.20899c.03824-.62629.04408-1.04312.01751-1.25048-.04555-.35547-.20586-.5332-.48092-.53321-.19043.00001-.5216.07406-.9935.22217l.02574-.39355 2.97388-1.01563-.22217 2.03125-.22029 3.13574c-.03443.49089-.04297.80404-.02561.93946.03523.27506.17769.41259.42737.41259.41894 0 .98983-.46549 1.71267-1.39648zm-3.12746-6.22705.31468-.86328 1.64039-1.16797-.39625 1.16797-1.55882.86328zm8.92445 4.70361h-.10791c-.89385 2.40365-1.91206 3.60547-3.05463 3.60547-.67709 0-1.06687-.3999-1.16935-1.19971-.02928-.22851-.03203-.51416-.00824-.85693l.21639-3.1167c.03497-.48665.04297-.80403.02399-.95215-.03361-.26236-.17526-.39355-.42493-.39355-.41471 0-.98588.46338-1.71349 1.39013l.03944-.58398c.7951-.99446 1.56293-1.49169 2.3035-1.4917.6136.00001.96107.31739 1.04241.95215.0271.21159.02241.57129-.01409 1.0791l-.22191 3.12305c-.01922.2793-.02125.47819-.00607.59668.04392.34277.19072.51416.44039.51416.31738 0 .74954-.38403 1.29648-1.1521.54693-.76807 1.02589-1.66203 1.43688-2.68189l.16505-2.27881 1.33595-.07617-.21923 1.95508-.22029 3.13574c-.03498.48666-.04297.80404-.02399.95215.03415.2666.17606.3999.42575.3999.41893 0 .98983-.46549 1.71267-1.39648l-.03862.59033c-.79935.99447-1.56718 1.4917-2.3035 1.4917-.61361 0-.96135-.3195-1.04322-.9585-.02765-.21582-.02296-.57552.01408-1.0791l.11649-1.56787zm3.20061 3.23096.72174-.85694c.60164.40202 1.1881.60303 1.75939.60303.35123 0 .63567-.09204.85329-.27612.21763-.18408.30909-.41154.27439-.68237-.0385-.30046-.33019-.71094-.87507-1.23145l-.65897-.63476c-.64199-.61784-.98955-1.13411-1.04269-1.54883-.07374-.57552.13374-1.0865.62243-1.53296.48869-.44645 1.08428-.66967 1.78676-.66968.38508.00001.82702.08041 1.32582.24121l-.09955 1.40283h-.3999l.00521-.10791c.00358-.03808.00212-.08251-.00438-.1333-.07321-.57128-.47796-.85692-1.2143-.85693-.82518.00001-1.19549.33008-1.11091.99023.04284.33432.34521.77865.90713 1.33301l.59452.57764c.64893.639.99969 1.16374 1.05229 1.57422.07266.56706-.16301 1.07275-.70698 1.51709-.54398.44433-1.19895.6665-1.9649.6665-.53743 0-1.14587-.12484-1.82532-.37451zm7.17217.29199.21922-1.95508.22029-3.13574c.03498-.48665.04297-.80403.024-.95215-.03362-.26236-.17526-.39355-.42493-.39355-.41472 0-.98588.46338-1.7135 1.39013l.03944-.58398c.79511-.99446 1.56294-1.49169 2.3035-1.4917.60937.00001.955.31951 1.03687.9585.02765.21582.0248.57341-.00854 1.07275l-.11015 1.56787h.08887c.40069-1.10025.87997-1.97517 1.43786-2.62475.55788-.64957 1.10766-.97436 1.64933-.97437.28352.00001.53593.11215.75721.33643.22128.22429.35334.50358.39618.83789.03144.24545.03316.53955.00515.88232l-.10706 1.54248h.08887c.33417-1.05794.77778-1.92228 1.33084-2.59302.55305-.67073 1.09618-1.00609 1.6294-1.0061.74901.00001 1.17449.39779 1.27643 1.19336.03036.23698.03391.52898.01068.87598l-.21882 3.09765c-.03499.48666-.04298.80404-.024.95215.03415.2666.17606.3999.42575.3999.41893 0 .98983-.46549 1.71267-1.39648l-.03862.59033c-.79511.99447-1.56295 1.4917-2.30349 1.4917-.61362 0-.96136-.3195-1.04322-.9585-.02658-.20735-.02189-.56705.01407-1.0791l.21882-3.09765c.02346-.2793.02705-.48242.01079-.60938-.04501-.35123-.1987-.52685-.46106-.52685-.73633 0-1.63981 1.27165-2.7104 3.81494l-.18166 2.29785-1.23438.07617.3508-5.04004c.01922-.27929.02071-.48241.00444-.60937-.04609-.3597-.19609-.53955-.44999-.53955-.31739 0-.73834.3724-1.26286 1.11718-.52453.7448-1.01123 1.66098-1.46009 2.74854l-.17546 2.24707-1.32325.07617zm14.826.08252c-.55436 0-1.04447-.21688-1.47032-.65063-.42586-.43376-.68027-.97437-.76323-1.62183-.15616-1.21875.16074-2.34546.9507-3.38013.78994-1.03466 1.72871-1.55199 2.81628-1.552.58821.00001 1.09985.2116 1.53494.63477.43507.42318.69464.96273.77869 1.61865.16211 1.2653-.15289 2.40682-.945 3.42456-.79213 1.01774-1.75948 1.52661-2.90206 1.52661zm.65288-.55225c.62629 0 1.12584-.40307 1.49862-1.20922.37278-.80615.49086-1.74243.35422-2.80884-.17947-1.40071-.69662-2.10107-1.55143-2.10108-.60515.00001-1.09672.41578-1.47471 1.24732-.378.83155-.50029 1.76782-.36691 2.80884.17622 1.37532.68962 2.06298 1.54021 2.06298zm9.47939-3.05322h-.11426c-.35001 1.06641-.81649 1.93392-1.39944 2.60254-.58295.66862-1.16642 1.00293-1.7504 1.00293-.89714 0-1.41755-.56071-1.56123-1.68213-.09761-.76172.01918-1.5594.35036-2.39307.33116-.83365.80742-1.53401 1.42879-2.10107.41723-.37662.85032-.62947 1.29928-.75854.44896-.12907 1.11566-.1936 2.0001-.19361.14231-.83788.32055-1.47794.53473-1.92016.21417-.44221.54202-.85587.98357-1.24097.7533-.66015 1.63565-.99022 2.64705-.99023.41894.00001.80549.04444 1.15966.1333l-.75414.90136c-.53178-.22004-.97329-.33006-1.32452-.33008-.67709.00002-1.15543.24652-1.43503.73951-.27962.49301-.46808 1.41659-.56539 2.77075l-.35244 5.02734c-.03867.49089-.04932.80404-.03196.93946.03523.27506.17769.41259.42737.41259.42317 0 .99618-.46549 1.71902-1.39648l-.04496.59033c-.79512.99447-1.56084 1.4917-2.29716 1.4917-.61361 0-.96135-.3195-1.04322-.9585-.02657-.20735-.02188-.56705.01408-1.0791l.11014-1.56787zm.18249-2.53906c-.55511-.23697-1.09926-.35546-1.63246-.35547-.76595.00001-1.31721.48666-1.65376 1.45996-.39841 1.15105-.53879 2.18571-.42113 3.10401.08513.66438.32447.99658.71803.99658.36392 0 .83854-.38298 1.42383-1.14893s1.07317-1.63981 1.46365-2.62158l.10184-1.43457zm-96.956251 24.26201h-1.453613l.377801-.46973h1.104492l.131646-1.79638 1.273295-.31739-.148105 2.11377h2.393065l-.44893.5586c-.5535-.05924-1.04183-.08886-1.465-.08887h-.514163l-.306154 4.34814c-.031396.44857-.035433.76384-.012115.94581.042833.33431.212362.50146.508592.50146.45702 0 1.03783-.33854 1.74242-1.01562l-.03943.58398c-.71686.8125-1.45403 1.21875-2.211516 1.21875-.719403 0-1.130072-.39779-1.232007-1.19336-.03633-.28353-.038037-.66015-.005123-1.12988l.304845-4.25928zm10.465301 4.69092-.03258.48877c-1.22588.93522-2.31278 1.40283-3.26069 1.40283-.60091 0-1.1156-.21053-1.54406-.63159-.42846-.42106-.68553-.9659-.7712-1.63452-.15291-1.19336.1603-2.31584.93963-3.36744.77931-1.05158 1.68737-1.57738 2.72415-1.57739.37663.00001.69758.12696.96287.38086.26527.25391.42394.58399.476.99024.10409.8125-.22115 1.51074-.97575 2.09472-.7546.58399-1.70742.87598-2.85846.87598l.03025.28564c.15832 1.23568.69029 1.85352 1.59589 1.85352.78287 0 1.68752-.38721 2.71395-1.16162zm-4.37782-1.3711c.93815-.07616 1.6474-.32055 2.12774-.73315.48033-.41259.67848-.94685.59444-1.60278-.08297-.64746-.35931-.97119-.82903-.97119-.50782 0-.95546.33749-1.34293 1.01245-.38748.67497-.57089 1.43986-.55022 2.29467zm6.51392 3.18018.21922-1.95508.22029-3.13574c.03497-.48665.04297-.80403.02399-.95215-.03361-.26236-.17526-.39355-.42493-.39355-.41472 0-.98588.46338-1.71349 1.39013l.03944-.58398c.7951-.99446 1.56293-1.49169 2.30349-1.4917.60938.00001.955.31951 1.03688.9585.02765.21582.0248.57341-.00855 1.07275l-.11014 1.56787h.08887c.40069-1.10025.87997-1.97517 1.43786-2.62475.55788-.64957 1.10765-.97436 1.64932-.97437.28352.00001.53593.11215.75722.33643.22128.22429.35333.50358.39618.83789.03144.24544.03315.53955.00514.88232l-.10705 1.54248h.08887c.33416-1.05794.77777-1.92228 1.33084-2.59302.55304-.67073 1.09618-1.00609 1.62939-1.0061.74901.00001 1.17449.39779 1.27644 1.19336.03035.23698.03391.52898.01068.87598l-.21883 3.09765c-.03498.48666-.04298.80404-.02399.95215.03414.2666.17606.3999.42575.3999.41893 0 .98982-.46549 1.71267-1.39648l-.03862.59033c-.79512.99447-1.56295 1.4917-2.3035 1.4917-.61362 0-.96136-.3195-1.04322-.9585-.02658-.20735-.02189-.56705.01408-1.0791l.21882-3.09765c.02345-.2793.02704-.48242.01079-.60938-.04502-.35123-.1987-.52685-.46106-.52685-.73634 0-1.63981 1.27165-2.71041 3.81494L116.84589 181l-1.23438.07617.35081-5.04004c.01922-.27929.0207-.48242.00444-.60937-.0461-.3597-.1961-.53955-.44999-.53955-.31739 0-.73835.3724-1.26287 1.11718-.52452.7448-1.01122 1.66098-1.46008 2.74854L112.61836 181l-1.32325.07617zm9.41669 4.03711.74062-.90772c.45876.21159.92088.31738 1.38637.31739 1.0791-.00001 1.68198-.89291 1.80863-2.67871l.34721-4.91944c.03402-.62629.03774-1.04312.01117-1.25049-.04555-.35546-.20374-.53319-.47457-.5332-.19466.00001-.52795.07406-.99985.22217l.03209-.39355 2.96753-1.01563-.21973 2.05029-.11258 1.54883h.10791c.34579-1.0664.81134-1.93285 1.39669-2.59936.58532-.6665 1.1721-.99975 1.76032-.99976.90136.00001 1.42362.5586 1.56677 1.67578.16754 1.30762-.18908 2.54541-1.06986 3.71338-.88079 1.16797-1.89882 1.75195-3.05408 1.75195-.1185 0-.36269-.02327-.73259-.06982-.04709-.00423-.12011-.0127-.21907-.02539-.15917 1.36686-.6038 2.41316-1.33389 3.13891-.73009.72575-1.70451 1.08862-2.92326 1.08863-.30469-.00001-.6333-.03809-.98583-.11426zm5.30604-5.0083c.55878.23275 1.10266.34912 1.63164.34912.76595 0 1.3172-.48665 1.65376-1.45996.39841-1.15104.53878-2.18571.42113-3.104-.08513-.66439-.32448-.99658-.71802-.99659-.35971.00001-.83128.38193-1.41472 1.14576-.58345.76383-1.07437 1.63875-1.47277 2.62475l-.10102 1.44092zm8.73608 1.05371c-.55436 0-1.04447-.21688-1.47032-.65063-.42586-.43376-.68027-.97437-.76323-1.62183-.15616-1.21875.16074-2.34546.9507-3.38013.78995-1.03466 1.7287-1.55199 2.81627-1.552.58821.00001 1.09986.2116 1.53495.63477.43507.42318.69464.96273.77869 1.61865.16211 1.2653-.15288 2.40682-.945 3.42456-.79213 1.01774-1.75949 1.52661-2.90206 1.52661zm.65287-.55225c.6263 0 1.12585-.40307 1.49864-1.20922.37277-.80615.49084-1.74243.35421-2.80884-.17948-1.40071-.69663-2.10107-1.55144-2.10108-.60514.00001-1.09671.41578-1.4747 1.24732-.378.83154-.5003 1.76782-.36692 2.80884.17622 1.37532.68962 2.06298 1.54021 2.06298zm5.47474.46973.21923-1.95508.218-3.104c.02336-.31315.02039-.58398-.00889-.8125-.04663-.36393-.1969-.54589-.4508-.5459-.44857.00001-1.02841.4782-1.73953 1.43457l.04187-.56494c.84252-1.05371 1.62349-1.58056 2.3429-1.58057.60937.00001.95879.34913 1.04825 1.04737.03959.30892.04542.65169.0175 1.02832l-.10868 1.52978h.08252c.36803-1.05794.8529-1.92228 1.45463-2.59302.60172-.67073 1.18822-1.00609 1.75952-1.0061.29621.00001.5691.0656.81866.19678l-.69783 1.14258c-.27084-.16504-.49299-.24756-.66649-.24756-.8252 0-1.76799 1.2124-2.82839 3.6372L142.21748 181l-1.33595.07617zm15.20669-1.99951-.03861.59033c-.79935.99447-1.56718 1.4917-2.3035 1.4917-.60938 0-.955-.3195-1.03687-.9585-.02766-.21582-.02454-.57128.00935-1.0664l.15495-2.20899c.03825-.62629.04408-1.04312.01751-1.25049-.04555-.35546-.20585-.53319-.48091-.5332-.19044.00001-.5216.07406-.99351.22217l.02575-.39355 2.97387-1.01563-.22216 2.03125-.22028 3.13574c-.03445.49089-.04298.80404-.02563.93946.03524.27506.1777.41259.42737.41259.41894 0 .98984-.46549 1.71267-1.39648zm-3.12745-6.22705.31468-.86328 1.64039-1.16797-.39625 1.16797-1.55882.86328zm4.36754 8.22656.21923-1.95508.22028-3.13574c.03498-.48665.04297-.80403.02399-.95215-.03361-.26236-.17526-.39355-.42493-.39355-.41471 0-.98588.46338-1.71348 1.39013l.03943-.58398c.7951-.99446 1.56294-1.49169 2.3035-1.4917.60937.00001.95473.31739 1.03606.95215.02765.21582.02507.57552-.00774 1.0791l-.11014 1.56787h.09521c.39017-1.08333.87635-1.95401 1.45854-2.61206.58218-.65803 1.16104-.98705 1.73656-.98706.69401.00001 1.09035.3851 1.18904 1.15527.03199.24968.03506.55437.00921.91407l-.21881 3.09765c-.03445.49089-.04245.80827-.02401.95215.03415.2666.17607.3999.42575.3999.42317 0 .99618-.46549 1.71902-1.39648l-.04496.59033c-.79512.99447-1.56295 1.4917-2.3035 1.4917-.60938 0-.955-.3195-1.03688-.9585-.02711-.21158-.02242-.57128.01409-1.0791l.21719-3.11035c.01987-.24121.01923-.44433-.00191-.60937-.04392-.34277-.19284-.51416-.44674-.51416-.80827 0-1.7654 1.28223-2.87138 3.84668L158.65791 181l-1.3296.07617zm14.12497-1.82178-.03177.49512c-1.26765.93945-2.34582 1.40918-3.23448 1.40918-.61361 0-1.13318-.20736-1.55871-.62207-.42554-.41471-.68195-.96273-.76924-1.64404-.15779-1.23145.16279-2.36239.96175-3.39283.79896-1.03043 1.75704-1.54564 2.87423-1.54565.49088.00001.99348.10792 1.50779.32373l-.21628 1.63135h-.39355l.00684-.09522c.01683-.19888.01928-.34488.00736-.43798-.07483-.58398-.50791-.87598-1.29924-.87598-.7448 0-1.31379.39779-1.70697 1.19336-.39318.79558-.51277 1.79427-.35878 2.99609.14694 1.14681.64781 1.72022 1.50263 1.72022.8125 0 1.71531-.38509 2.70842-1.15528zm5.8869-.17773-.03862.59033c-.79934.99447-1.56717 1.4917-2.3035 1.4917-.60938 0-.95499-.3195-1.03687-.9585-.02765-.21582-.02454-.57128.00935-1.0664l.15495-2.20899c.03825-.62629.04408-1.04312.01752-1.25049-.04556-.35546-.20586-.53319-.48092-.5332-.19043.00001-.5216.07406-.9935.22217l.02574-.39355 2.97387-1.01563-.22216 2.03125-.22028 3.13574c-.03444.49089-.04298.80404-.02563.93946.03524.27506.1777.41259.42738.41259.41894 0 .98983-.46549 1.71267-1.39648zm-3.12746-6.22705.31468-.86328 1.64039-1.16797-.39625 1.16797-1.55882.86328zm8.45472 4.70361h-.11426c-.35002 1.06641-.81649 1.93392-1.39944 2.60254-.58295.66862-1.16642 1.00293-1.75041 1.00293-.89713 0-1.41754-.56071-1.56123-1.68213-.0976-.76172.01919-1.5594.35036-2.39307.33117-.83365.80743-1.53401 1.42879-2.10107.41723-.37662.85033-.62947 1.2993-.75854.44895-.12907 1.11564-.1936 2.00009-.19361.14231-.83788.32055-1.47794.53473-1.92016.21417-.44221.54202-.85587.98357-1.24097.7533-.66015 1.63565-.99022 2.64704-.99024.41895.00002.8055.04445 1.15966.13331l-.75413.90136c-.53179-.22004-.9733-.33007-1.32452-.33008-.6771.00001-1.15543.24652-1.43503.73951-.27961.49301-.46808 1.41659-.5654 2.77075l-.35242 5.02734c-.03868.49089-.04933.80404-.03197.93946.03523.27506.17769.41259.42737.41259.42317 0 .99618-.46549 1.71902-1.39648l-.04497.59033c-.79511.99447-1.56083 1.4917-2.29715 1.4917-.61361 0-.96135-.3195-1.04322-.9585-.02658-.20735-.02188-.56705.01408-1.0791l.11014-1.56787zm.18248-2.53906c-.5551-.23697-1.09926-.35546-1.63245-.35547-.76596.00001-1.31721.48666-1.65376 1.45996-.39841 1.15105-.53879 2.18571-.42113 3.104.08513.66439.32446.99659.71802.99659.36393 0 .83854-.38298 1.42384-1.14893.58528-.76595 1.07316-1.63981 1.46366-2.62158l.10182-1.43457zm8.07424 4.0625-.03862.59033c-.79934.99447-1.56717 1.4917-2.30349 1.4917-.60938 0-.955-.3195-1.03688-.9585-.02765-.21582-.02453-.57128.00936-1.0664l.15495-2.20899c.03824-.62629.04408-1.04312.01751-1.25049-.04555-.35546-.20585-.53319-.48092-.5332-.19043.00001-.52159.07406-.9935.22217l.02574-.39355 2.97388-1.01563-.22216 2.03125-.22028 3.13574c-.03445.49089-.04298.80404-.02563.93946.03524.27506.17769.41259.42737.41259.41894 0 .98984-.46549 1.71267-1.39648zm-3.12746-6.22705.31469-.86328 1.64038-1.16797-.39624 1.16797-1.55883.86328zm8.45472 4.70361h-.11425c-.35002 1.06641-.8165 1.93392-1.39944 2.60254-.58296.66862-1.16643 1.00293-1.75041 1.00293-.89714 0-1.41755-.56071-1.56123-1.68213-.09761-.76172.01919-1.5594.35036-2.39307.33116-.83365.80742-1.53401 1.42879-2.10107.41723-.37662.85032-.62947 1.29929-.75854.44895-.12907 1.11565-.1936 2.00009-.19361.14231-.83788.32055-1.47794.53473-1.92016.21417-.44221.54203-.85587.98357-1.24097.7533-.66015 1.63565-.99022 2.64705-.99024.41894.00002.80549.04445 1.15966.13331l-.75413.90136c-.53179-.22004-.9733-.33007-1.32453-.33008-.67709.00001-1.15543.24652-1.43502.73951-.27962.49301-.46809 1.41659-.5654 2.77075l-.35243 5.02734c-.03868.49089-.04933.80404-.03197.93946.03523.27506.17769.41259.42737.41259.42317 0 .99618-.46549 1.71902-1.39648l-.04496.59033c-.79512.99447-1.56083 1.4917-2.29716 1.4917-.61361 0-.96134-.3195-1.04322-.9585-.02657-.20735-.02188-.56705.01409-1.0791l.11013-1.56787zm.18249-2.53906c-.55511-.23697-1.09926-.35546-1.63246-.35547-.76595.00001-1.31721.48666-1.65376 1.45996-.39841 1.15105-.53879 2.18571-.42113 3.104.08513.66439.32447.99659.71803.99659.36392 0 .83854-.38298 1.42383-1.14893s1.07317-1.63981 1.46366-2.62158l.10183-1.43457zm3.49281 2.53906.14623-.93945h2.89453l-.14623.93945h-2.89453zm-93.85911 24.7h-.10791c-.89385 2.40365-1.91206 3.60547-3.05464 3.60547-.67708 0-1.06686-.3999-1.16934-1.19971-.02928-.22851-.03203-.51416-.00824-.85693l.21638-3.1167c.03498-.48665.04298-.80403.024-.95215-.03362-.26236-.17527-.39355-.42494-.39355-.41471 0-.98587.46338-1.713481 1.39013l.039432-.58398c.795109-.99446 1.562939-1.49169 2.303499-1.4917.6136.00001.96107.31739 1.04241.95215.0271.21159.02241.57129-.01408 1.0791l-.22191 3.12305c-.01923.2793-.02126.47819-.00607.59668.04391.34277.19071.51416.44039.51416.31738 0 .74953-.38404 1.29647-1.1521.54693-.76807 1.02589-1.66203 1.43689-2.68189l.16505-2.27881 1.33594-.07617-.21922 1.95508-.22029 3.13574c-.03498.48666-.04298.80404-.024.95215.03415.2666.17607.3999.42575.3999.41894 0 .98983-.46549 1.71267-1.39648l-.03861.59033c-.79935.99447-1.56718 1.4917-2.3035 1.4917-.61362 0-.96136-.3195-1.04322-.9585-.02766-.21582-.02297-.57552.01407-1.0791l.1165-1.56787zm4.50754 3.52295.21923-1.95508.22028-3.13574c.03498-.48665.04298-.80403.024-.95215-.03362-.26236-.17526-.39355-.42494-.39355-.41471 0-.98587.46338-1.71348 1.39013l.03943-.58398c.79511-.99446 1.56294-1.49169 2.3035-1.4917.60937.00001.95473.31739 1.03606.95215.02765.21582.02507.57552-.00773 1.0791l-.11014 1.56787h.09521c.39016-1.08333.87634-1.95401 1.45853-2.61206.58218-.65803 1.16104-.98705 1.73656-.98706.69401.00001 1.09035.3851 1.18905 1.15527.03198.24968.03505.55437.00921.91407l-.21883 3.09765c-.03444.49089-.04244.80827-.02399.95215.03415.2666.17607.3999.42575.3999.42317 0 .99617-.46549 1.71902-1.39648l-.04497.59033c-.79511.99447-1.56295 1.4917-2.3035 1.4917-.60938 0-.955-.3195-1.03687-.9585-.02712-.21158-.02243-.57128.01408-1.0791l.21719-3.11035c.01987-.24121.01923-.44433-.00191-.60937-.04392-.34277-.19284-.51416-.44674-.51416-.80827 0-1.7654 1.28223-2.87138 3.84667l-.17302 2.26612-1.3296.07617zm9.59001-6.5h-1.45361l.3778-.46973h1.10449l.13165-1.79638 1.27329-.31739-.1481 2.11377h2.39306l-.44893.5586c-.5535-.05924-1.04183-.08886-1.465-.08887h-.51416l-.30616 4.34814c-.03139.44857-.03543.76384-.01211.94581.04283.33431.21236.50146.50859.50146.45703 0 1.03783-.33854 1.74243-1.01562l-.03944.58398c-.71686.8125-1.45403 1.21875-2.21151 1.21875-.71941 0-1.13008-.39779-1.23201-1.19336-.03633-.28353-.03804-.66015-.00512-1.12988l.30484-4.25928zm14.44151 2.97705h-.10791c-.89386 2.40365-1.91206 3.60547-3.05464 3.60547-.67708 0-1.06687-.3999-1.16933-1.19971-.02929-.22851-.03203-.51416-.00824-.85693l.21637-3.1167c.03498-.48665.04297-.80403.024-.95215-.03362-.26236-.17526-.39355-.42493-.39355-.41472 0-.98588.46338-1.71349 1.39013l.03943-.58398c.79511-.99446 1.56294-1.49169 2.3035-1.4917.6136.00001.96108.31739 1.04241.95215.02711.21159.02242.57129-.01408 1.0791l-.22191 3.12305c-.01923.2793-.02126.47819-.00607.59668.04391.34277.19071.51416.44039.51416.31738 0 .74954-.38404 1.29647-1.1521.54693-.76807 1.0259-1.66203 1.43689-2.68189l.16505-2.27881 1.33594-.07617-.21922 1.95508-.22028 3.13574c-.03499.48666-.04299.80404-.024.95215.03414.2666.17606.3999.42574.3999.41894 0 .98983-.46549 1.71267-1.39648l-.03861.59033c-.79935.99447-1.56718 1.4917-2.3035 1.4917-.61362 0-.96135-.3195-1.04322-.9585-.02766-.21582-.02297-.57552.01408-1.0791l.11649-1.56787zm4.85537-2.97705h-1.45361l.37779-.46973h1.1045l.13164-1.79638 1.2733-.31739-.14811 2.11377h2.39307l-.44894.5586c-.55349-.05924-1.04182-.08886-1.46499-.08887h-.51416l-.30616 4.34814c-.03139.44857-.03544.76384-.01211.94581.04282.33431.21235.50146.50858.50146.45703 0 1.03783-.33854 1.74243-1.01562l-.03943.58398c-.71687.8125-1.45404 1.21875-2.21152 1.21875-.71941 0-1.13007-.39779-1.232-1.19336-.03634-.28353-.03805-.66015-.00513-1.12988l.30485-4.25928zm13.02033 4.46875-.03943.58398c-.86803 1.01986-1.66174 1.52979-2.38114 1.52979-.60092 0-.94285-.32373-1.0258-.97119-.03416-.2666-.03555-.62419-.00416-1.07276l.30844-4.37988c.1084-1.53189.5301-2.72419 1.26508-3.5769.73498-.85269 1.70761-1.27904 2.9179-1.27906.42317.00002.80972.04445 1.15966.13331l-.75333.90771c-.51963-.22427-.95717-.33642-1.31264-.33643-.67285.00001-1.1471.24546-1.42274.73633-.27564.4909-.46132 1.41977-.55701 2.78662l-.35405 5.01465c-.03498.48666-.04298.80404-.024.95215.03415.2666.17607.3999.42574.3999.28353 0 .78329-.37662 1.49928-1.12988.05588-.05924.15528-.15869.2982-.29834zm5.36942-1.4917h-.11426c-.3421 1.06218-.8066 1.92863-1.39351 2.59937-.58692.67073-1.17448 1.0061-1.76269 1.0061-.89291 0-1.41093-.55859-1.55407-1.67578-.15779-1.23144.17857-2.4375 1.00906-3.61817.85892-1.22297 2.02048-1.83446 3.48468-1.83447.60513.00001 1.24103.0254 1.9077.07617l-.21629 1.87891-.21393 3.13574c-.03445.49089-.04244.80827-.024.95215.03415.2666.17606.3999.42575.3999.42317 0 .99406-.46549 1.71267-1.39648l-.03862.59033c-.79935.99447-1.56718 1.4917-2.3035 1.4917-.61361 0-.96134-.3195-1.04322-.9585-.02711-.21158-.02242-.57128.01409-1.0791l.11014-1.56787zm.18248-2.53906c-.56358-.23697-1.10561-.35546-1.62611-.35547-.77019.00001-1.32356.48666-1.66011 1.45996-.39418 1.15105-.53244 2.18571-.41478 3.104.08513.66439.32235.99659.71167.99659.36393 0 .83868-.38192 1.42425-1.14576.58555-.76383 1.07357-1.63663 1.46406-2.6184l.10102-1.44092zm3.87731 5.98584.20995-1.87891.31396-4.38623c.10841-1.53189.5301-2.72419 1.26508-3.5769.73499-.85269 1.70762-1.27904 2.9179-1.27906.41895.00002.8055.04445 1.15967.13331l-.75968.90771c-.51963-.22427-.95718-.33642-1.31264-.33643-.67286.00001-1.14617.2444-1.41998.73316-.2738.48878-.45827 1.41871-.55342 2.78979l-.24391 3.44678h.10791c.35001-1.0664.81768-1.93286 1.40302-2.59936.58533-.6665 1.17211-.99975 1.76033-.99976.89713.00001 1.41727.5586 1.56042 1.67578.15833 1.23568-.17564 2.44385-1.00189 3.62451-.85156 1.21452-2.00308 1.82178-3.45457 1.82178-.21583 0-.48959-.00635-.82129-.01904l-1.13086-.05713zm1.39607-.89502c.55455.23275 1.09843.34912 1.63164.34912.76595 0 1.3172-.48665 1.65376-1.45996.39841-1.15104.53879-2.18571.42113-3.10401-.08513-.66438-.32448-.99657-.71802-.99658-.35971.00001-.83234.38193-1.41789 1.14575-.58557.76384-1.07543 1.63876-1.4696 2.62476l-.10102 1.44092zm8.65991 1.05371c-.55437 0-1.04447-.21688-1.47032-.65064-.42587-.43375-.68028-.97436-.76323-1.62182-.15616-1.21875.16074-2.34546.9507-3.38013.78995-1.03466 1.7287-1.55199 2.81627-1.552.58821.00001 1.09986.2116 1.53495.63477.43507.42318.69464.96273.77868 1.61865.16212 1.2653-.15288 2.40682-.94499 3.42456-.79214 1.01774-1.75949 1.52661-2.90206 1.52661zm.65287-.55225c.6263 0 1.12585-.40307 1.49864-1.20923.37276-.80614.49084-1.74242.35421-2.80883-.17948-1.40071-.69663-2.10107-1.55144-2.10108-.60515.00001-1.09672.41578-1.4747 1.24732-.378.83154-.5003 1.76782-.36692 2.80884.17622 1.37532.68962 2.06298 1.54021 2.06298zm5.47474.46973.21923-1.95508.218-3.104c.02336-.31315.02039-.58398-.00888-.8125-.04665-.36393-.19691-.54589-.45081-.5459-.44857.00001-1.02842.4782-1.73953 1.43457l.04187-.56494c.84252-1.05371 1.62349-1.58056 2.3429-1.58057.60937.00001.95878.34913 1.04826 1.04737.03957.30892.04541.65169.01749 1.02832l-.10867 1.52978h.08252c.36802-1.05794.85289-1.92228 1.45462-2.59302.60171-.67073 1.18822-1.00609 1.75951-1.0061.29622.00001.56912.0656.81867.19678l-.69784 1.14258c-.27082-.16504-.49299-.24756-.66648-.24756-.8252 0-1.768 1.2124-2.8284 3.6372l-.16651 2.3169-1.33595.07617zm12.12709-1.80908-.03259.48877c-1.22587.93522-2.31277 1.40283-3.26069 1.40283-.60091 0-1.11559-.21053-1.54405-.63159-.42846-.42106-.68553-.9659-.7712-1.63452-.15291-1.19336.1603-2.31584.93963-3.36744.77931-1.05158 1.68737-1.57738 2.72416-1.57739.37662.00001.69756.12696.96286.38086.26527.25391.42393.58399.476.99024.10409.8125-.22115 1.51074-.97575 2.09472-.7546.58399-1.70743.87598-2.85846.87598l.03025.28564c.15833 1.23568.69028 1.85352 1.59589 1.85352.78287 0 1.68752-.38721 2.71395-1.16162zm-4.37783-1.3711c.93816-.07616 1.6474-.32055 2.12775-.73315.48033-.41259.67848-.94685.59444-1.60278-.08297-.64746-.35931-.97119-.82903-.97119-.50782 0-.95546.33749-1.34293 1.01245-.38748.67497-.57088 1.43986-.55023 2.29467zm15.72744 1.3711-.03259.48877c-1.22587.93522-2.31277 1.40283-3.26069 1.40283-.60091 0-1.11559-.21053-1.54405-.63159-.42846-.42106-.68553-.9659-.7712-1.63452-.15291-1.19336.1603-2.31584.93963-3.36744.77931-1.05158 1.68737-1.57738 2.72415-1.57739.37663.00001.69757.12696.96287.38086.26527.25391.42393.58399.476.99024.10409.8125-.22115 1.51074-.97575 2.09472-.7546.58399-1.70743.87598-2.85847.87598l.03026.28564c.15832 1.23568.69028 1.85352 1.59589 1.85352.78287 0 1.68752-.38721 2.71395-1.16162zm-4.37783-1.3711c.93816-.07616 1.6474-.32055 2.12775-.73315.48033-.41259.67848-.94685.59443-1.60278-.08296-.64746-.3593-.97119-.82903-.97119-.50781 0-.95545.33749-1.34292 1.01245-.38748.67497-.57089 1.43986-.55023 2.29467zm6.86175-3.31982h-1.45361l.37779-.46973h1.1045l.13164-1.79638 1.2733-.31739-.14811 2.11377h2.39307l-.44894.5586c-.55349-.05924-1.04182-.08886-1.46499-.08887h-.51416l-.30616 4.34814c-.03139.44857-.03544.76384-.01211.94581.04282.33431.21235.50146.50858.50146.45703 0 1.03783-.33854 1.74243-1.01562l-.03943.58398c-.71687.8125-1.45404 1.21875-2.21152 1.21875-.71941 0-1.13007-.39779-1.232-1.19336-.03634-.28353-.03805-.66015-.00513-1.12988l.30485-4.25928zm-91.2931 27.67705h-.11426c-.35002 1.06641-.8165 1.93392-1.39944 2.60254-.58296.66862-1.16642 1.00293-1.75041 1.00293-.89713 0-1.41754-.56071-1.56123-1.68213-.0976-.76172.01919-1.5594.35036-2.39307.33117-.83365.80743-1.53401 1.42879-2.10107.41723-.37662.85033-.62947 1.29929-.75855.44895-.12906 1.11565-.19359 2.00009-.1936.14231-.83788.32056-1.47794.53474-1.92016.21416-.44222.54202-.85587.98357-1.24097.75329-.66015 1.63564-.99022 2.64704-.99024.41894.00002.80549.04445 1.15966.1333l-.75413.90137c-.53179-.22004-.9733-.33007-1.32452-.33008-.6771.00001-1.15544.24651-1.43504.73951-.27961.49301-.46807 1.41659-.56539 2.77075l-.35243 5.02734c-.03867.49089-.04933.80404-.03197.93945.03524.27507.1777.4126.42738.4126.42317 0 .99617-.46549 1.71902-1.39648l-.04497.59033c-.79511.99447-1.56083 1.4917-2.29715 1.4917-.61361 0-.96135-.3195-1.04322-.9585-.02658-.20735-.02188-.56705.01408-1.0791l.11014-1.56787zm.18248-2.53906c-.55511-.23697-1.09926-.35546-1.63246-.35547-.76595.00001-1.3172.48666-1.65375 1.45996-.39842 1.15105-.5388 2.18571-.42114 3.104.08513.66439.32447.99659.71803.99659.36393 0 .83854-.38298 1.42383-1.14893s1.07317-1.63981 1.46366-2.62158l.10183-1.43457zm5.93525 6.14453c-.55436 0-1.04447-.21688-1.47033-.65064-.42586-.43375-.68026-.97436-.76322-1.62182-.15616-1.21875.16073-2.34546.95069-3.38013.78995-1.03466 1.72871-1.55199 2.81628-1.552.58821.00001 1.09986.21159 1.53495.63477.43507.42318.69463.96273.77868 1.61865.16212 1.2653-.15288 2.40682-.945 3.42456-.79213 1.01774-1.75948 1.52661-2.90205 1.52661zm.65287-.55225c.6263 0 1.12584-.40307 1.49863-1.20923.37278-.80615.49085-1.74242.35422-2.80883-.17948-1.40071-.69663-2.10107-1.55144-2.10108-.60515.00001-1.09672.41578-1.47471 1.24732-.37799.83154-.50029 1.76782-.36691 2.80883.17622 1.37533.68962 2.06299 1.54021 2.06299zm8.52795-1.56152-.03943.58398c-.86803 1.01986-1.66174 1.52979-2.38114 1.52979-.60091 0-.94284-.32373-1.0258-.97119-.03416-.2666-.03555-.62419-.00415-1.07276l.30843-4.37988c.10841-1.53189.5301-2.72419 1.26508-3.5769.73498-.85269 1.70761-1.27904 2.9179-1.27906.42318.00002.80973.04445 1.15966.1333l-.75332.90772c-.51963-.22427-.95718-.33642-1.31264-.33643-.67286.00001-1.1471.24546-1.42274.73633-.27565.4909-.46132 1.41977-.55702 2.78662l-.35405 5.01465c-.03498.48666-.04298.80404-.024.95215.03416.2666.17608.3999.42575.3999.28353 0 .78329-.37662 1.49927-1.12988.05589-.05924.15528-.15869.2982-.29834zm2.80356 2.11377c-.55437 0-1.04448-.21688-1.47033-.65064-.42586-.43375-.68027-.97436-.76323-1.62182-.15616-1.21875.16074-2.34546.9507-3.38013.78995-1.03466 1.72871-1.55199 2.81627-1.552.58821.00001 1.09986.21159 1.53495.63477.43508.42318.69464.96273.77869 1.61865.16211 1.2653-.15288 2.40682-.945 3.42456-.79213 1.01774-1.75948 1.52661-2.90205 1.52661zm.65287-.55225c.6263 0 1.12584-.40307 1.49863-1.20923.37277-.80615.49084-1.74242.35421-2.80883-.17948-1.40071-.69663-2.10107-1.55144-2.10108-.60514.00001-1.09671.41578-1.4747 1.24732-.37799.83154-.5003 1.76782-.36691 2.80883.17622 1.37533.68962 2.06299 1.54021 2.06299zm5.47473.46973.21923-1.95508.218-3.104c.02336-.31315.0204-.58398-.00888-.8125-.04663-.36393-.19691-.54589-.45081-.5459-.44857.00001-1.02841.4782-1.73953 1.43457l.04188-.56494c.84251-1.05371 1.62348-1.58056 2.34289-1.58057.60937.00001.95879.34913 1.04826 1.04737.03958.30892.04541.65169.0175 1.02832l-.10868 1.52978h.08252c.36802-1.05794.85289-1.92228 1.45462-2.59302.60172-.67073 1.18822-1.00609 1.75952-1.0061.29621.00001.56911.0656.81866.19678l-.69783 1.14257c-.27083-.16503-.49299-.24755-.66649-.24755-.8252 0-1.76799 1.2124-2.82839 3.6372l-.16652 2.3169-1.33595.07617zm12.12709-1.80908-.03258.48877c-1.22588.93522-2.31278 1.40283-3.26069 1.40283-.60092 0-1.1156-.21053-1.54406-.63159-.42846-.42106-.68553-.9659-.7712-1.63452-.15291-1.19336.1603-2.31584.93963-3.36744.77932-1.05158 1.68737-1.57738 2.72416-1.57739.37662.00001.69757.12696.96286.38086.26527.25391.42393.58399.476.99024.10409.8125-.22115 1.51074-.97575 2.09472-.7546.58399-1.70742.87598-2.85846.87598l.03025.28564c.15833 1.23568.69029 1.85352 1.59589 1.85352.78287 0 1.68752-.38721 2.71395-1.16162zm-4.37782-1.3711c.93816-.07616 1.64739-.32055 2.12774-.73315.48033-.41259.67848-.94685.59444-1.60278-.08297-.64746-.35931-.97119-.82903-.97119-.50782 0-.95545.33748-1.34293 1.01245-.38748.67497-.57088 1.43986-.55022 2.29467zm10.83032 3.18018.21923-1.95508.22028-3.13574c.03498-.48665.04297-.80403.02401-.95215-.03363-.26236-.17527-.39355-.42494-.39355-.41472 0-.98588.46338-1.71349 1.39013l.03943-.58398c.79511-.99446 1.56294-1.49169 2.3035-1.4917.60937.00001.955.3195 1.03687.9585.02766.21582.0248.57341-.00854 1.07275l-.11014 1.56787h.08887c.40068-1.10026.87997-1.97517 1.43786-2.62476.55788-.64957 1.10765-.97435 1.64932-.97436.28352.00001.53593.11215.75722.33643.22128.22429.35333.50358.39618.83789.03143.24544.03315.53955.00514.88232l-.10705 1.54248h.08887c.33416-1.05794.77777-1.92228 1.33083-2.59302.55305-.67073 1.09618-1.00609 1.62939-1.0061.74902.00001 1.1745.39779 1.27645 1.19336.03035.23698.0339.52898.01068.87598l-.21883 3.09765c-.03499.48666-.04298.80404-.02399.95215.03415.2666.17606.3999.42575.3999.41893 0 .98982-.46549 1.71266-1.39648l-.03862.59033c-.79511.99447-1.56295 1.4917-2.30349 1.4917-.61362 0-.96136-.3195-1.04322-.9585-.02659-.20735-.02188-.56705.01408-1.0791l.21882-3.09765c.02344-.2793.02704-.48242.01079-.60938-.04502-.35123-.19871-.52685-.46107-.52686-.73633.00001-1.6398 1.27166-2.7104 3.81495l-.18166 2.29785-1.23438.07617.3508-5.04004c.01923-.27929.0207-.48242.00444-.60937-.0461-.3597-.19609-.53955-.44999-.53956-.31739.00001-.73833.37241-1.26286 1.11719-.52452.7448-1.01122 1.66098-1.46009 2.74854l-.17546 2.24707-1.32325.07617zm17.39188-3.52295h-.11426c-.34211 1.06218-.80661 1.92863-1.39351 2.59937-.58692.67073-1.17448 1.0061-1.7627 1.0061-.8929 0-1.41092-.55859-1.55406-1.67578-.15779-1.23144.17856-2.4375 1.00905-3.61817.85893-1.22297 2.02048-1.83446 3.48468-1.83447.60514.00001 1.24104.0254 1.90771.07617l-.21629 1.87891-.21393 3.13574c-.03445.49089-.04245.80827-.024.95215.03415.2666.17607.3999.42575.3999.42317 0 .99405-.46549 1.71266-1.39648l-.03861.59033c-.79935.99447-1.56718 1.4917-2.3035 1.4917-.61362 0-.96135-.3195-1.04322-.9585-.02712-.21158-.02243-.57128.01408-1.0791l.11015-1.56787zm.18248-2.53906c-.56358-.23697-1.10562-.35546-1.62612-.35547-.77018.00001-1.32355.48666-1.66011 1.45996-.39418 1.15105-.53244 2.18571-.41478 3.104.08513.66439.32235.99659.71168.99659.36393 0 .83868-.38192 1.42424-1.14576.58556-.76383 1.07358-1.63663 1.46406-2.6184l.10103-1.44092zm4.65776 5.88428c-.54035-.25391-.85959-.76384-.95773-1.52979-.1605-1.2526.19224-2.46289 1.05822-3.63086.84013-1.13834 1.9923-1.70751 3.4565-1.70752.27929.00001.87287.0254 1.78075.07617l-.20994 1.87891-.10964 1.47266c-.05313.77441-.08361 1.3457-.09144 1.71386-.04027 1.50228-.14055 2.54435-.30085 3.12622-.16032.58187-.50303 1.1521-1.02812 1.7107-.77189.81249-1.7291 1.21874-2.87168 1.21875-.74479-.00001-1.36851-.14495-1.87115-.43482-.50263-.28988-.78377-.66756-.84341-1.13305-.11929-.931.54354-1.8514 1.98849-2.76123zm3.9394-5.86524c-.5398-.24967-1.0615-.3745-1.56507-.37451-.56284.00001-1.00665.2518-1.33144.75537-.25796.39779-.46307.98495-.61537 1.76147-.1523.77654-.1932 1.43987-.12271 1.99.07645.59668.30299.89502.67962.89501.83366.00001 1.78601-1.20393 2.85705-3.61181l.09792-1.41553zm-.17857 2.52002h-.10156c-.32116.99447-.75611 1.79427-1.30488 2.39941-.54876.60515-1.16125.96062-1.83748 1.06641-1.01058.76595-1.47384 1.47689-1.3898 2.13281.05422.42318.30673.78394.75756 1.08228.45083.29834.97034.4475 1.55856.44751.75749-.00001 1.3174-.29517 1.67976-.8855.36234-.59033.55501-1.52238.57801-2.79614l.05983-3.44678zm4.4569-2.52002c-.03363-.26236-.17527-.39355-.42495-.39355-.41471 0-.98588.46338-1.71348 1.39013l.03943-.58398c.7951-.99446 1.56294-1.49169 2.3035-1.4917.60937.00001.95473.31739 1.03606.95215 8.31199 2.53913-1.40371 6.06943-1.24056.12695z" font-family="Lucida Calligraphy" font-size="13" font-weight="400" style="text-align:start;line-height:189.99999762%"/>
  </g>
  <g transform="translate(58.70338 105.6761) scale(.5556)">
    <path fill="#fff" fill-rule="evenodd" d="M269.89491 188.04388c42.41836-20.39517 68.37368-41.44349 85.65102-61.72503-18.62775-13.3263-13.1547-12.28666 3.61906-5.8307 7.89206 3.03753 21.51329 3.21694 36.79375-22.518585C407.68943 78.212623 418.0752 69.82134 418.0752 69.82134c-13.20583 1.476953-36.21709-2.680121 3.418-6.936527 17.04152-20.931253 38.2862-39.060407 58.30704-58.0054492-38.68448 15.7660142-24.88463-1.0264958 7.13759-6.1322927C508.30354-30.480428 547.55277-46.186253 590.68414-58.95679c-29.76691 1.054113-62.37677-.131684-75.19597 14.275171l.20106-6.936527c-28.92374 7.193719-97.24372 32.006826-99.12324 37.4237-1.44386 4.161255-6.19479 13.45585994-8.60129 22.2496059-.74754-5.3377954-.57933-11.2250401.56868-17.700166-20.17183 9.1497727-57.44223 37.0142311-59.07164 43.6461941-.94254 3.836321-3.39209 33.067127-1.27953 46.063082-6.96324-10.792279-7.92287-24.313472-9.15776-37.70955-7.09217 7.205592-36.23086 18.930671-30.79201 75.52677-6.02463-6.6786-4.82805-17.36899-6.53982-26.443624-19.3115 24.614404-36.34639 61.113034-35.61783 97.410254"/>
    <g fill-rule="evenodd" mask="url(#i)" transform="translate(222.6461 -71.72402) scale(.80424)">
      <path fill="url(#j)" d="M102.53048 182.72583c-4.949744 50.20458 9.19239 66.46804 9.19239 66.46804-25.119325 26.93727-43.097828 58.63508-62.932502 89.09545-8.48529-49.96888 9.428095-101.82338 53.740112-155.56349z"/>
      <path fill="url(#k)" d="M158.39192 199.69639c-6.92924-26.39865-7.72855-52.79731-11.31371-79.19596-37.98215 32.9364-55.96579 68.89908-37.47666 131.52186 15.69081-17.44197 31.27058-34.88393 48.79037-52.3259z"/>
      <path fill="url(#l)" d="M156.97771 201.81771c-12.30572-72.21412-6.79606-106.441117 79.90306-136.471606-6.79318 26.016224-8.15081 43.551006-4.24264 65.053826-26.37476 22.65131-51.14792 46.90421-75.66042 71.41778z"/>
      <path fill="url(#m)" d="M226.27417 133.93546c-6.67655-94.654604 63.61374-102.956179 132.22897-113.137083-49.67228 44.240975-93.87013 82.095123-132.22897 113.137083z"/>
      <path fill="url(#n)" d="M185.61553 174.24055c101.78785 4.91483 81.87624-19.40932 141.77491-82.024388-32.95043 11.728018-47.7014 10.716418-62.2254 9.545938-27.23449 24.15948-54.17926 48.31897-79.54951 72.47845z"/>
      <path fill="url(#o)" d="M260.21529 108.47962C341.10537 89.98954 416.0238 76.223597 479.4184 9.4846682c-40.92301-1.2549578-81.57988-8.3649996-123.39013 9.8994958l-95.81298 89.095456z"/>
      <path fill="url(#p)" d="M135.7645 226.56645c15.74523 8.54824 38.23024 19.34308 48.79037 26.16295-71.57484 72.85151-93.917871 66.41403-138.592929 90.50967 32.90121-48.33008 53.689043-80.87652 89.802559-116.67262z"/>
      <path fill="url(#q)" d="M135.0574 226.21289c58.99223 33.62186 76.60965 33.61067 116.11195-52.65432-33.10166-8.6576-26.69474 11.76069-71.89015 10.32178-14.08453 12.07871-30.77968 30.50049-44.2218 42.33254z"/>
    </g>
    <path fill="none" stroke="#000" stroke-linejoin="round" stroke-width="2.24981189" d="M269.89491 188.04388c42.41836-20.39517 68.37368-41.44349 85.65102-61.72503-18.62775-13.3263-13.1547-12.28666 3.61906-5.8307 7.89206 3.03753 21.51329 3.21694 36.79375-22.518585C407.68943 78.212623 418.0752 69.82134 418.0752 69.82134c-13.20583 1.476953-36.21709-2.680121 3.418-6.936527 17.04152-20.931253 38.2862-39.060407 58.30704-58.0054492-38.68448 15.7660142-24.88463-1.0264958 7.13759-6.1322927C508.30354-30.480428 547.55277-46.186253 590.68414-58.95679c-29.76691 1.054113-62.37677-.131684-75.19597 14.275171l.20106-6.936527c-28.92374 7.193719-97.24372 32.006826-99.12324 37.4237-1.44386 4.161255-6.19479 13.45585994-8.60129 22.2496059-.74754-5.3377954-.57933-11.2250401.56868-17.700166-20.17183 9.1497727-57.44223 37.0142311-59.07164 43.6461941-.94254 3.836321-3.39209 33.067127-1.27953 46.063082-6.96324-10.792279-7.92287-24.313472-9.15776-37.70955-7.09217 7.205592-36.23086 18.930671-30.79201 75.52677-6.02463-6.6786-4.82805-17.36899-6.53982-26.443624-19.3115 24.614404-36.34639 61.113034-35.61783 97.410254"/>
    <g fill-rule="evenodd" transform="translate(222.6461 -71.72402) scale(.80424)">
      <path fill="#9d9d9d" stroke="#000" stroke-linecap="round" stroke-linejoin="round" stroke-width="2.79745579" d="M281.5 87.25C163.1173 181.45514 64.982893 280.99684 11.6875 391.75H15s6.5-9.5 11.25-13.5S45.5 364.5 45.5 364.5s12.482756-37.87794 38.292154-74.64749c25.809396-36.76956 61.871846-71.77134 69.296466-79.54952C160.51324 202.52482 176.125 185.75 176.125 185.75"/>
      <path d="m20.5 356 30 21.5-64 37.5" mask="url(#r)"/>
    </g>
  </g>
</svg>