<?xml version="1.0" standalone="no"?>
<!DOCTYPE svg PUBLIC "-//W3C//DTD SVG 20010904//EN"
 "http://www.w3.org/TR/2001/REC-SVG-20010904/DTD/svg10.dtd">
<svg version="1.0" xmlns="http://www.w3.org/2000/svg"
 width="800.000000pt" height="800.000000pt" viewBox="0 0 800.000000 800.000000"
 preserveAspectRatio="xMidYMid meet">
<metadata>
Created by potrace 1.16, written by Peter Selinger 2001-2019
</metadata>
<g transform="translate(0.000000,800.000000) scale(0.100000,-0.100000)"
fill="#000000" stroke="none">
<path d="M4482 7133 c-27 -27 -55 -58 -61 -70 -17 -33 -13 -91 10 -163 35
-109 58 -246 48 -291 -6 -26 -6 -47 1 -59 6 -11 10 -53 10 -92 -1 -40 1 -148
5 -241 5 -134 4 -168 -7 -171 -55 -16 -104 -26 -173 -36 -44 -7 -93 -17 -110
-24 -58 -25 -102 -36 -138 -36 -21 0 -45 -4 -55 -9 -9 -5 -46 -17 -82 -26 -36
-9 -79 -21 -96 -26 -17 -5 -44 -9 -62 -9 -17 0 -34 -5 -37 -10 -4 -6 -11 -8
-16 -5 -11 8 -12 202 0 209 4 3 11 64 15 136 6 111 5 135 -8 155 -9 14 -16 37
-17 52 -1 36 -47 112 -81 132 -14 9 -46 30 -70 48 -25 17 -70 44 -102 59 -31
14 -59 30 -62 35 -3 5 -13 9 -23 9 -10 0 -32 7 -47 15 -38 19 -117 19 -195 -1
-106 -27 -144 -65 -159 -160 -9 -52 -7 -61 20 -119 16 -35 34 -66 39 -70 5 -3
16 -18 24 -33 7 -15 18 -36 24 -47 7 -11 24 -60 38 -110 15 -49 31 -98 36
-107 5 -10 9 -27 9 -37 0 -11 4 -22 9 -25 5 -4 12 -29 16 -56 4 -27 11 -52 16
-56 5 -3 9 -18 9 -34 0 -16 5 -32 10 -35 14 -9 12 -61 -2 -72 -20 -16 -64 -24
-178 -35 -121 -12 -370 -13 -448 -3 -47 6 -56 4 -86 -19 -62 -47 -82 -120 -51
-183 19 -39 44 -55 125 -81 64 -20 69 -20 315 -6 138 8 280 17 316 20 l66 6 7
-119 c4 -65 12 -154 17 -198 23 -196 24 -182 -8 -189 -15 -3 -119 -10 -231
-16 -111 -5 -206 -11 -210 -13 -4 -3 -54 -8 -112 -11 -58 -4 -127 -11 -155
-16 -113 -21 -247 -32 -550 -48 -94 -5 -186 -14 -205 -20 -19 -6 -55 -16 -80
-22 -25 -6 -86 -25 -135 -41 -50 -16 -115 -32 -145 -35 -30 -3 -64 -9 -75 -14
-11 -4 -35 -14 -53 -20 -66 -25 -128 -132 -119 -208 3 -24 9 -47 14 -51 5 -3
12 -14 16 -24 4 -9 15 -20 24 -24 10 -4 29 -17 43 -30 14 -13 32 -23 40 -23 9
0 21 -5 27 -11 8 -8 53 -7 159 1 82 6 209 13 283 16 74 3 141 9 150 13 9 5 57
14 106 20 50 7 99 16 110 21 11 5 43 11 70 13 89 7 362 59 410 77 35 13 200
40 248 40 25 0 49 5 52 10 3 6 30 10 58 10 29 0 70 5 92 10 22 5 60 10 85 11
60 2 222 29 235 38 6 5 53 9 105 10 52 1 99 6 105 11 5 4 48 10 95 11 l85 4 3
-68 c2 -36 -2 -75 -8 -86 -6 -12 -6 -22 -1 -25 5 -3 7 -14 4 -24 -2 -11 0 -42
5 -70 11 -63 6 -68 -68 -75 -91 -9 -267 -25 -404 -37 -71 -6 -137 -15 -147
-20 -10 -6 -42 -10 -71 -10 -29 0 -80 -5 -113 -10 -33 -5 -94 -12 -135 -15
-41 -3 -109 -15 -150 -25 -41 -11 -105 -26 -142 -32 -54 -9 -73 -18 -98 -43
-28 -29 -31 -37 -31 -103 -1 -60 3 -77 23 -104 26 -37 33 -50 75 -128 27 -50
50 -116 73 -210 20 -81 44 -157 60 -190 9 -19 23 -64 30 -100 7 -36 23 -87 35
-115 33 -74 57 -189 71 -335 3 -41 15 -118 25 -170 10 -52 19 -105 19 -116 0
-12 9 -52 21 -89 22 -71 82 -145 117 -145 26 0 81 28 120 62 18 15 41 28 52
28 10 0 21 4 24 8 6 10 108 28 236 41 52 6 127 13 165 18 39 4 78 6 89 5 10
-1 25 3 33 10 11 9 83 13 257 14 132 1 261 4 286 8 25 4 221 8 435 10 402 4
431 7 483 47 35 27 112 153 112 183 0 9 47 115 61 136 5 8 12 22 15 30 14 35
27 66 35 82 5 10 9 28 9 41 0 13 4 27 9 32 12 13 61 160 61 185 0 10 5 22 11
25 12 8 19 25 61 144 16 47 38 103 49 125 10 22 19 47 19 56 0 9 4 20 8 25 5
6 19 43 32 83 12 40 27 75 31 78 5 3 9 16 9 29 0 13 5 27 11 30 6 4 8 14 5 22
-3 8 -1 23 5 34 6 11 10 65 10 120 -1 86 -4 107 -27 156 -30 63 -61 103 -80
103 -7 0 -22 9 -33 21 -11 12 -31 27 -45 34 -14 7 -38 20 -53 28 -59 31 -138
58 -198 67 -27 5 -160 9 -295 9 -205 0 -277 -4 -440 -25 -107 -14 -217 -28
-244 -31 l-49 -5 7 38 c4 22 14 75 22 119 9 44 18 94 21 111 4 27 10 33 41 38
21 3 231 9 467 12 237 3 437 9 445 13 8 4 260 8 560 9 300 2 579 7 620 12 41
5 95 12 120 14 147 16 355 61 418 91 57 28 99 76 113 132 5 21 15 48 21 61 9
18 9 28 0 42 -7 11 -12 29 -12 41 0 11 -5 30 -11 42 -19 38 -102 106 -149 124
-25 9 -49 20 -54 25 -6 4 -22 8 -37 8 -15 0 -30 4 -33 9 -3 5 -20 11 -38 15
-118 20 -174 32 -183 37 -13 9 -156 22 -225 22 -129 -2 -515 -53 -552 -73 -10
-6 -29 -10 -42 -10 -14 0 -27 -4 -30 -9 -3 -5 -20 -11 -38 -15 -139 -24 -177
-32 -184 -38 -4 -5 -24 -8 -45 -8 -21 0 -41 -4 -44 -10 -3 -5 -18 -10 -31 -10
-14 0 -60 -9 -102 -19 -43 -11 -135 -26 -207 -35 -71 -9 -187 -24 -258 -33
-70 -9 -130 -14 -133 -11 -5 5 13 104 37 203 5 22 13 60 19 85 21 102 30 138
48 188 11 29 23 57 29 63 5 5 88 14 184 19 96 6 210 15 254 20 44 6 130 15
190 20 105 8 125 12 170 30 11 4 53 16 94 25 73 17 129 42 164 73 37 33 66
127 48 159 -6 10 -19 39 -31 65 -15 36 -31 54 -68 75 -26 15 -61 37 -78 50
-17 13 -36 23 -43 23 -6 0 -31 10 -54 22 -38 20 -56 22 -202 22 -144 0 -259
-14 -315 -36 -8 -4 -30 -9 -47 -12 -18 -3 -48 -9 -65 -12 -18 -3 -43 -10 -55
-16 -42 -20 -51 -6 -41 63 4 35 13 78 18 96 6 18 15 48 20 66 6 18 10 45 10
60 0 14 5 29 10 32 6 3 10 19 10 34 0 15 5 32 12 39 8 8 12 52 12 135 l0 122
-39 74 c-21 41 -61 98 -89 126 -55 56 -159 115 -204 115 -15 0 -44 11 -64 25
-28 19 -50 25 -91 25 -52 0 -58 -3 -105 -47z m-35 -1555 c-2 -7 -12 -58 -22
-113 -9 -55 -20 -107 -23 -115 -9 -24 -42 -200 -48 -257 -7 -61 -9 -62 -124
-73 -137 -14 -329 -40 -408 -56 -82 -16 -127 -11 -117 15 4 9 6 115 5 236 -2
121 -3 232 -3 247 0 54 12 58 167 58 78 0 146 4 151 9 6 5 44 12 85 14 41 3
129 14 195 25 149 25 148 25 142 10z m387 -1599 c6 -5 15 -4 23 2 9 8 17 8 26
0 8 -6 16 -8 19 -6 3 3 46 -1 97 -9 50 -8 98 -13 105 -10 30 12 34 -20 14
-106 -12 -51 -23 -145 -28 -235 -4 -82 -15 -181 -24 -220 -9 -38 -18 -92 -21
-120 -10 -100 -17 -150 -26 -167 -5 -9 -9 -28 -9 -42 0 -15 -4 -34 -9 -44 -5
-9 -14 -29 -20 -44 l-11 -28 -142 0 c-93 0 -187 -7 -268 -20 -69 -11 -175 -24
-237 -30 -61 -5 -118 -12 -126 -16 -16 -6 -31 33 -18 50 4 6 9 92 10 191 2 99
7 185 12 192 16 18 120 27 324 29 283 1 313 11 390 134 31 49 33 106 4 157
-22 41 -66 82 -87 83 -7 0 -40 9 -74 21 -56 18 -70 19 -177 10 -182 -17 -305
-33 -315 -43 -6 -4 -21 -8 -34 -8 -24 0 -24 2 -18 53 3 28 9 89 12 134 4 46
12 87 18 93 23 18 571 18 590 -1z m-980 -51 c14 -69 28 -273 20 -299 -2 -9
-19 -19 -37 -23 -67 -11 -167 -26 -297 -42 -131 -16 -136 -18 -172 -52 -20
-19 -42 -48 -49 -64 -10 -25 -8 -33 17 -71 16 -23 32 -50 36 -59 4 -9 24 -25
45 -35 33 -16 65 -18 246 -18 l208 0 -3 -202 c-2 -111 -6 -204 -10 -208 -7 -8
-40 -11 -218 -20 -220 -11 -310 -24 -413 -55 -37 -11 -48 11 -43 92 1 35 -1
71 -6 80 -4 9 -11 52 -14 95 -3 43 -9 89 -14 103 -21 63 -48 334 -57 575 -3
77 -9 144 -14 150 -5 5 -9 12 -9 15 0 4 62 10 138 13 75 4 154 9 175 11 21 2
90 7 155 11 184 10 235 14 240 20 3 3 20 5 38 5 27 0 35 -5 38 -22z"/>
<path d="M4705 2416 c-11 -8 -29 -16 -39 -16 -10 0 -32 -13 -47 -30 -23 -24
-29 -39 -29 -74 0 -40 4 -48 38 -73 75 -55 469 -444 582 -573 79 -92 215 -224
248 -241 13 -8 39 -28 59 -46 19 -18 40 -33 47 -33 7 0 21 -9 31 -20 10 -11
22 -20 28 -20 5 0 22 -9 37 -20 31 -22 168 -52 176 -39 3 5 14 9 25 9 30 0
113 88 126 135 14 53 16 171 2 215 -34 110 -93 194 -231 328 -13 12 -28 22
-33 22 -5 0 -19 10 -31 21 -13 12 -32 27 -42 33 -11 6 -32 20 -48 30 -16 11
-81 53 -144 94 -63 41 -119 80 -125 86 -12 14 -101 76 -110 76 -3 0 -22 10
-43 23 -44 27 -211 97 -233 97 -8 0 -20 5 -26 11 -7 7 -54 14 -105 16 -74 4
-97 2 -113 -11z"/>
<path d="M3298 2361 c-75 -40 -158 -128 -158 -166 0 -13 -4 -27 -10 -30 -5 -3
-10 -14 -10 -23 0 -18 -250 -272 -268 -272 -10 0 -124 -81 -188 -134 -18 -14
-36 -26 -41 -26 -6 0 -18 -9 -28 -20 -10 -11 -24 -20 -32 -20 -7 0 -13 -4 -13
-9 0 -5 -13 -11 -29 -14 -46 -10 -119 -47 -153 -79 -17 -16 -52 -41 -77 -55
-25 -15 -67 -41 -92 -60 -26 -18 -62 -36 -80 -39 -48 -9 -69 -22 -111 -66 -21
-21 -46 -38 -56 -38 -32 0 -62 -42 -62 -86 0 -76 71 -110 208 -101 46 3 89 10
95 15 7 5 66 28 132 51 66 24 149 55 185 70 36 16 79 31 95 35 17 4 57 20 90
35 33 16 78 34 100 41 22 7 67 26 100 43 33 17 82 41 109 55 27 13 73 39 101
58 29 18 74 45 101 60 27 14 58 35 70 45 11 11 23 19 27 19 4 0 32 17 63 37
31 21 64 43 73 48 28 17 104 77 146 117 22 21 48 40 58 44 9 3 17 10 17 15 0
5 5 9 11 9 21 0 92 64 119 107 36 57 30 83 -43 177 -47 62 -73 84 -143 126
-57 33 -97 50 -119 50 -19 0 -37 5 -40 10 -13 21 -81 7 -147 -29z"/>
</g>
</svg>
